<?xml version="1.0" ?><svg viewBox="0 0 64 64" xmlns="http://www.w3.org/2000/svg"><path d="M18.033 60c-1.026 0-2.06-.123-3.075-.364-2.69-.64-4.745-2.13-5.94-4.306-1.357-2.467-1.52-5.793-.44-8.895 1.262-3.624 5.694-5.904 9.254-6.577-.498-2.878-.9-5.368-1.218-7.524-1.017 3.597-4.18 5.838-8.604 5.893h-.126c-2.978 0-5.568-1.3-6.925-3.474-1.234-1.976-1.28-4.442-.127-6.766 1.513-3.054 4.473-4.468 7.178-4.853C3.88 8.56 4.637 7.934 5.935 6.854 7.556 5.51 15.626 4 16.677 4c1.183 0 1.858.625 2.157.997.74.922 1.84 5.31 1.676 6.7-.12 1.018-.645 1.618-1.064 1.943-.63.488-1.21.636-4.532 1.34-.292.06-.625.132-.96.204.58 2.18 1.136 4.335 1.61 6.325.038-2.9.67-3.377 1.292-3.847 1.148-.868 3.557-1.853 17.705-2.565 1.214-.06 2.442-.092 3.65-.092 4.636 0 10.408.326 11.58 1.883.6.796.7.925-.275 16.865 1.433-1.35 3.412-2.197 5.388-2.23.22-1.322.48-3.017.698-4.42.28-1.805.562-3.62.794-4.984.42-2.464.75-4.41 3.056-4.41 1.574 0 4.553.678 4.553 3.25 0 .958-2.448 18.26-2.787 19.696-.575 2.425-3.09 4.88-6.792 4.88-.67 0-1.363-.083-2.055-.245-1.397-.326-2.574-1.03-3.44-2.034-.013.222-.028.443-.04.67.815 1.2 1.99 3.44 1.948 6.344-.063 4.27-4.35 7.744-9.558 7.744-1.076 0-2.16-.15-3.222-.44-3.58-.986-5.235-2.927-5.993-4.38-1.09-2.094-1.16-4.617-.198-7.3 1.13-3.147 4.708-4.546 7.34-5.158-.446-2.657-.93-5.283-1.27-6.8-.387-.013-.87-.024-1.45-.024-3.48 0-6.778.34-8.772.87-.046 2.59-.066 5.188-.035 6.247.907 1.562 2.952 5.764 1.915 10.385C28.475 56.388 23.615 60 18.033 60z" fill="#FFF"/><path d="M22.145 21.91c-.143.095.555 5.303.716 5.417.335.238 1.48-.285 1.48-.285l-.43-3.802s2.337-.475 2.624-.523c.286-.047-.095-1.378-.095-1.378s-4.152.474-4.295.57zm-3.768 24.14c-.906-.096-1.765.522-2.91 1.852s-1.05 2.85-.954 3.326c.095.475 1.43.95 1.717.713.286-.237-.43-1.33.143-2.47.572-1.14 2.1-2.138 2.433-2.233.334-.095.188-1.123-.43-1.188zM14.37 29.797c.048-3.66-3.578-16.157-3.578-16.442 0-.285 6.63-1.426 7.06-1.758.43-.333-.86-4.752-1.05-4.99-.19-.238-8.348 1.52-9.206 2.233-.86.714 3.91 17.06 3.91 17.06-1.716-.665-6.534-.428-8.347 3.23-1.814 3.66.953 6.56 4.817 6.51 3.865-.045 6.345-2.183 6.393-5.842zM47.713 18.44c-.143-.19-5.486-1.14-13.023-.76-7.537.38-14.883 1-16.266 2.044-1.383 1.045 2.48 22.62 2.48 22.62-2.575-.62-8.68 1.52-9.873 4.94-1.192 3.422-.858 8.554 4.533 9.837 5.39 1.284 10.494-1.805 11.496-6.272s-1.718-8.696-1.91-8.98c-.19-.286 0-8.887 0-8.887 3.674-1.947 14.168-1.805 14.74-1.425.573.38 2.29 11.31 2.29 11.31s-6.677.57-7.87 3.896c-1.193 3.327-.572 6.94 4.436 8.317 5.01 1.378 9.445-1.568 9.493-4.847.047-3.28-2.004-5.512-2.004-5.512s1.62-26.087 1.477-26.277zm-23.66 33.644c-1.956 2.71-5.533 4.752-8.682 2.566s-3.052-5.845-1.86-7.508c1.194-1.663 4.962-4.04 8.683-3.136 2.866.695 3.816 5.37 1.86 8.078zM41.37 29.608c-1.194-.618-5.487-.38-11.163.38s-7.012 1.996-7.298 2.71c-.287.712-.62 3.468-.62 3.468l-1.623-15.54s3.53-1.377 13.118-1.33c9.588.048 11.687.57 11.735.76.048.19-.143 2.328-.143 2.328s-2.48-.855-2.624-.57-.525.998-.19 1.093c.333.095 2.766.665 2.766.808 0 .143-.096 1.236-.096 1.236l-2.67-.664s-.383 1.283-.05 1.33c.335.048 2.672.76 2.672.76s.048 1-.095 1-2.575-.57-2.575-.57-.525.95-.19 1.044c.333.095 2.718.998 2.718.998s-.668 9.504-.81 9.36c-.145-.142-1.672-7.983-2.864-8.6zm-1.384 23.807c-4.58-.523-4.007-4.8-3.768-5.607.24-.808 1.86-2.946 3.912-3.04 2.873-.134 4.818 1.33 5.343 3.896.523 2.565-.908 5.273-5.487 4.75zm19.462-33.12c-.334 0-2.222 14.34-2.528 14.207-2.624-1.14-5.39.38-6.44 2.138-1.05 1.758-.763 5.37 2.48 6.13 3.245.76 5.343-1.093 5.725-2.71.38-1.615 2.72-18.674 2.72-19.102s-1.623-.664-1.957-.664zM39.413 47.046c-.716.285-1.526 2.47-1.526 3.136 0 .665 1.24.333 1.383-.095s.906-1.948 1.097-2.328c.19-.38-.18-1.02-.954-.713z"/></svg>