<?xml version="1.0" ?><!DOCTYPE svg  PUBLIC '-//W3C//DTD SVG 1.1//EN'  'http://www.w3.org/Graphics/SVG/1.1/DTD/svg11.dtd'><svg enable-background="new 0 0 24 24" height="24px" id="Layer_1" version="1.1" viewBox="0 0 24 24" width="24px" xml:space="preserve" xmlns="http://www.w3.org/2000/svg" xmlns:xlink="http://www.w3.org/1999/xlink"><g><path d="M23.7,2.4l-2.1-2.1c-0.4-0.4-1-0.4-1.4,0L18,2.4c-0.4,0.4-0.4,1,0,1.4l-3.8,3.8c-1.9-1-4.2-0.7-5.8,0.9C8,9,7.6,9.5,7.4,10   c-1.9-0.1-3.9,0.6-5.3,2c-2.7,2.7-2.7,7.2,0,9.9c2.7,2.7,7.2,2.7,9.9,0c1.5-1.5,2.1-3.4,2-5.3c0.5-0.2,1.1-0.6,1.5-1   c1.6-1.6,1.9-4,0.9-5.9L20.1,6c0.4,0.4,1,0.4,1.4,0l2.1-2.1C24,3.4,24,2.8,23.7,2.4z M14.1,14.2c-0.2,0.2-0.3,0.3-0.5,0.4   c-0.6,0.4-1,0.4-1.3,1C12,16,12,16.4,12,17c0,1.3-0.5,2.5-1.5,3.5c-2,2-5.1,2-7.1,0c-2-2-2-5.1,0-7.1c1-1,2.2-1.4,3.5-1.5   c0.7,0,1.2,0,1.5-0.2c0.4-0.4,0.6-0.8,1-1.4c0.1-0.2,0.2-0.4,0.4-0.5c1.2-1.2,3.1-1.2,4.2,0S15.2,13,14.1,14.2z M15.8,8.9   c-0.1-0.1-0.2-0.2-0.3-0.4c-0.1-0.1-0.3-0.2-0.4-0.3l3.6-3.6l0.7,0.7L15.8,8.9z M20.8,5.2l-2.1-2.1L20.8,1l2.1,2.1L20.8,5.2z"/><path d="M7.9,14c-1.1,0-2,0.9-2,2s0.9,2,2,2s2-0.9,2-2S9.1,14,7.9,14z M7.9,17c-0.6,0-1-0.4-1-1s0.4-1,1-1s1,0.4,1,1S8.5,17,7.9,17   z"/></g></svg>