<?xml version="1.0" ?><!DOCTYPE svg  PUBLIC '-//W3C//DTD SVG 1.1//EN'  'http://www.w3.org/Graphics/SVG/1.1/DTD/svg11.dtd'><svg height="720pt" version="1.1" viewBox="0 0 720 720" width="720pt" xmlns="http://www.w3.org/2000/svg"><path d=" M 268.86 11.12 C 300.67 9.91 333.01 12.01 363.56 21.52 C 392.74 30.22 419.99 45.86 441.42 67.60 C 459.66 86.37 473.75 109.10 482.77 133.65 C 487.44 146.05 491.17 158.86 492.61 172.06 C 494.74 184.05 492.10 196.25 493.78 208.27 C 495.13 222.10 499.26 236.46 509.12 246.69 C 521.00 259.11 536.98 267.92 554.10 270.15 C 564.41 271.44 574.69 269.48 585.00 269.59 C 595.52 269.16 605.83 272.47 615.26 276.90 C 623.25 281.14 631.13 285.93 637.35 292.58 C 641.40 296.87 646.01 300.67 649.52 305.45 C 655.53 313.40 661.57 321.58 664.81 331.13 C 667.00 337.58 669.50 344.11 669.99 350.96 C 669.95 424.32 670.00 497.68 669.97 571.04 C 669.64 575.56 668.92 580.04 668.85 584.59 C 668.10 587.91 667.02 591.16 665.99 594.41 C 662.34 600.43 657.55 606.14 650.96 609.01 C 641.91 613.28 631.66 611.77 622.00 611.99 C 621.25 611.99 619.75 611.99 619.00 611.99 C 455.67 612.01 292.33 611.99 129.00 612.00 C 129.01 627.33 128.99 642.66 129.01 657.99 C 129.00 662.92 129.30 668.00 127.71 672.76 C 125.28 680.51 118.79 686.78 110.96 688.95 C 103.80 691.12 95.71 689.72 89.62 685.39 C 83.01 680.92 79.11 673.00 79.03 665.08 C 78.87 511.37 78.90 357.65 78.95 203.95 C 79.71 196.79 80.21 189.58 81.43 182.47 C 83.18 175.61 83.41 168.50 84.87 161.59 C 91.26 129.22 105.16 97.99 126.97 73.04 C 147.96 48.67 176.43 31.29 207.04 21.83 C 227.01 15.34 247.97 12.47 268.86 11.12 M 183.69 33.79 C 158.56 45.51 136.36 63.54 120.08 86.02 C 99.92 113.66 88.12 147.04 84.88 181.01 C 82.75 196.24 81.37 211.62 81.65 227.01 C 81.65 271.83 81.68 316.65 81.63 361.47 C 151.08 361.78 220.54 361.46 290.00 361.62 C 290.00 364.06 290.00 366.49 290.00 368.93 C 220.56 368.81 151.13 368.89 81.69 368.90 C 81.59 436.60 81.72 504.31 81.63 572.01 C 81.37 576.09 83.85 579.59 86.68 582.25 C 91.60 586.86 98.48 588.51 105.00 589.15 C 111.42 589.89 117.62 587.53 124.00 587.42 C 290.65 587.45 457.31 587.42 623.96 587.43 C 630.33 587.61 636.53 589.87 642.94 589.17 C 650.89 588.51 659.47 586.15 664.73 579.75 C 668.09 575.62 667.15 569.95 667.28 565.01 C 667.17 499.64 667.33 434.27 667.20 368.91 C 592.80 368.90 518.40 368.76 444.00 368.98 C 444.00 366.52 444.00 364.07 444.00 361.62 C 518.35 361.58 592.71 361.54 667.06 361.65 C 667.78 354.37 667.13 347.01 664.79 340.07 C 659.44 320.17 645.90 303.66 630.71 290.26 C 619.48 281.15 605.93 274.69 591.59 272.55 C 579.06 271.39 566.53 274.36 554.00 272.87 C 534.98 270.73 517.39 260.50 504.85 246.25 C 493.44 232.66 490.50 214.27 490.44 197.05 C 491.01 180.58 489.86 163.82 484.78 148.06 C 475.89 117.91 459.91 89.64 437.45 67.53 C 415.19 45.58 386.79 30.33 356.66 22.34 C 327.25 14.04 296.39 12.64 266.02 14.01 C 237.73 15.78 209.42 21.64 183.69 33.79 M 81.96 582.13 C 82.73 586.56 83.65 591.09 86.02 595.00 C 90.93 603.81 100.98 609.25 111.01 609.02 C 286.33 608.98 461.65 609.01 636.96 609.01 C 644.40 609.16 651.77 606.27 657.18 601.18 C 662.30 596.54 664.64 589.80 666.04 583.22 C 659.58 587.89 652.09 591.23 644.07 591.80 C 637.29 592.81 630.70 590.51 623.99 590.11 C 460.66 590.07 297.33 590.13 134.00 590.10 C 127.70 589.96 121.35 589.93 115.16 591.28 C 103.42 593.62 90.81 590.21 81.96 582.13 M 82.14 594.76 C 81.81 616.85 82.13 638.95 81.95 661.05 C 81.90 665.91 82.13 671.02 84.59 675.35 C 89.45 685.12 102.34 689.79 112.32 685.38 C 119.21 682.65 124.45 676.21 125.64 668.89 C 126.17 665.29 126.05 661.64 126.04 658.01 C 125.89 642.70 126.17 627.38 125.90 612.07 C 116.04 611.59 105.48 613.47 96.36 608.67 C 90.10 605.86 85.91 600.26 82.14 594.76 Z" fill="#231f20" opacity="1.00"/><path d=" M 183.69 33.79 C 209.42 21.64 237.73 15.78 266.02 14.01 C 296.39 12.64 327.25 14.04 356.66 22.34 C 386.79 30.33 415.19 45.58 437.45 67.53 C 459.91 89.64 475.89 117.91 484.78 148.06 C 489.86 163.82 491.01 180.58 490.44 197.05 C 490.50 214.27 493.44 232.66 504.85 246.25 C 517.39 260.50 534.98 270.73 554.00 272.87 C 566.53 274.36 579.06 271.39 591.59 272.55 C 605.93 274.69 619.48 281.15 630.71 290.26 C 645.90 303.66 659.44 320.17 664.79 340.07 C 667.13 347.01 667.78 354.37 667.06 361.65 C 592.71 361.54 518.35 361.58 444.00 361.62 C 443.96 354.72 444.04 347.82 444.04 340.93 C 443.97 338.25 444.03 335.15 441.93 333.16 C 439.55 330.61 435.89 330.29 432.69 329.60 C 431.20 327.18 429.18 324.59 426.15 324.23 C 420.44 323.66 414.70 324.13 408.97 324.00 C 395.94 324.11 382.89 323.77 369.85 324.17 C 369.17 324.23 367.81 324.36 367.13 324.42 L 367.14 323.99 C 348.39 324.05 329.63 323.93 310.87 324.03 C 307.04 323.74 303.97 326.47 302.30 329.66 C 298.78 330.19 294.71 330.31 292.12 333.13 C 289.95 335.14 290.01 338.28 289.96 341.00 C 289.96 347.87 290.03 354.75 290.00 361.62 C 220.54 361.46 151.08 361.78 81.63 361.47 C 81.68 316.65 81.65 271.83 81.65 227.01 C 81.37 211.62 82.75 196.24 84.88 181.01 C 88.12 147.04 99.92 113.66 120.08 86.02 C 136.36 63.54 158.56 45.51 183.69 33.79 Z" fill="#3d3f40" opacity="1.00"/><path d=" M 302.30 329.66 C 303.97 326.47 307.04 323.74 310.87 324.03 C 329.63 323.93 348.39 324.05 367.14 323.99 L 367.13 324.42 C 366.83 349.94 367.08 375.47 367.00 401.00 C 345.60 401.00 324.20 400.99 302.80 401.00 C 301.57 394.73 302.06 388.30 302.00 381.95 C 302.20 364.53 301.60 347.07 302.30 329.66 Z" fill="#f2ede5" opacity="1.00"/><path d=" M 369.85 324.17 C 382.89 323.77 395.94 324.11 408.97 324.00 C 414.70 324.13 420.44 323.66 426.15 324.23 C 429.18 324.59 431.20 327.18 432.69 329.60 C 433.41 345.06 432.80 360.56 433.00 376.03 C 432.75 384.35 433.69 392.76 432.20 401.00 C 411.47 400.99 390.73 401.00 370.00 401.00 C 369.90 375.39 370.19 349.78 369.85 324.17 Z" fill="#f2ede5" opacity="1.00"/><path d=" M 367.13 324.42 C 367.81 324.36 369.17 324.23 369.85 324.17 C 370.19 349.78 369.90 375.39 370.00 401.00 C 369.25 401.00 367.75 401.00 367.00 401.00 C 367.08 375.47 366.83 349.94 367.13 324.42 Z" fill="#353b42" opacity="1.00"/><path d=" M 292.12 333.13 C 294.71 330.31 298.78 330.19 302.30 329.66 C 301.60 347.07 302.20 364.53 302.00 381.95 C 302.06 388.30 301.57 394.73 302.80 401.00 C 298.64 401.01 294.49 401.01 290.33 400.93 C 290.21 399.26 290.10 397.60 290.04 395.93 C 290.02 395.27 290.00 393.94 289.99 393.27 C 289.99 385.16 290.01 377.05 290.00 368.93 C 290.00 366.49 290.00 364.06 290.00 361.62 C 290.03 354.75 289.96 347.87 289.96 341.00 C 290.01 338.28 289.95 335.14 292.12 333.13 Z" fill="#00a8ec" opacity="1.00"/><path d=" M 432.69 329.60 C 435.89 330.29 439.55 330.61 441.93 333.16 C 444.03 335.15 443.97 338.25 444.04 340.93 C 444.04 347.82 443.96 354.72 444.00 361.62 C 444.00 364.07 444.00 366.52 444.00 368.98 C 443.98 377.40 444.01 385.82 444.01 394.25 C 443.99 394.95 443.94 396.36 443.92 397.07 C 443.84 398.36 443.75 399.65 443.66 400.95 C 439.84 401.01 436.02 401.00 432.20 401.00 C 433.69 392.76 432.75 384.35 433.00 376.03 C 432.80 360.56 433.41 345.06 432.69 329.60 Z" fill="#00a8ec" opacity="1.00"/><path d=" M 81.69 368.90 C 151.13 368.89 220.56 368.81 290.00 368.93 C 290.01 377.05 289.99 385.16 289.99 393.27 C 243.99 392.01 197.98 392.85 151.98 392.15 C 141.31 391.72 130.63 391.65 119.95 391.70 C 119.90 452.40 119.86 513.10 119.97 573.80 C 289.32 573.82 458.68 573.82 628.03 573.79 C 628.13 514.28 628.14 454.77 628.02 395.26 C 602.68 395.23 577.34 395.23 552.00 395.19 C 516.01 394.42 480.00 394.34 444.01 394.25 C 444.01 385.82 443.98 377.40 444.00 368.98 C 518.40 368.76 592.80 368.90 667.20 368.91 C 667.33 434.27 667.17 499.64 667.28 565.01 C 667.15 569.95 668.09 575.62 664.73 579.75 C 659.47 586.15 650.89 588.51 642.94 589.17 C 636.53 589.87 630.33 587.61 623.96 587.43 C 457.31 587.42 290.65 587.45 124.00 587.42 C 117.62 587.53 111.42 589.89 105.00 589.15 C 98.48 588.51 91.60 586.86 86.68 582.25 C 83.85 579.59 81.37 576.09 81.63 572.01 C 81.72 504.31 81.59 436.60 81.69 368.90 Z" fill="#3d3f40" opacity="1.00"/><path d=" M 119.95 391.70 C 130.63 391.65 141.31 391.72 151.98 392.15 C 197.98 392.85 243.99 392.01 289.99 393.27 C 290.00 393.94 290.02 395.27 290.04 395.93 C 280.82 395.85 271.59 396.09 262.39 395.53 C 246.94 394.73 231.47 395.24 216.01 395.12 C 191.34 395.09 166.68 394.96 142.02 394.92 C 135.70 394.85 129.39 394.42 123.09 394.13 C 122.54 420.43 123.04 446.74 122.85 473.04 C 123.05 505.68 122.56 538.32 123.05 570.95 C 126.69 570.96 130.33 570.95 133.97 570.94 C 134.06 568.96 134.17 566.97 134.19 565.00 C 143.16 567.80 152.61 566.60 161.84 566.83 C 161.80 561.41 161.81 556.00 161.81 550.58 C 161.84 535.57 161.77 520.55 161.84 505.53 C 157.13 505.38 151.82 506.22 147.76 503.22 C 146.18 502.43 146.33 500.59 146.27 499.12 C 146.30 475.43 146.28 451.75 146.29 428.06 C 142.29 428.06 138.29 428.10 134.29 427.97 C 134.13 421.68 134.10 415.40 134.27 409.12 C 162.16 408.75 190.05 409.02 217.93 408.96 C 236.67 409.05 255.41 408.78 274.14 409.10 C 276.41 410.95 278.79 413.21 281.96 413.00 C 339.31 413.00 396.67 413.00 454.01 413.00 C 457.22 413.24 459.61 410.95 461.87 409.05 C 512.17 409.01 562.49 408.73 612.80 409.13 C 612.93 415.44 612.89 421.75 612.80 428.06 C 607.57 428.06 602.35 428.06 597.12 428.06 C 597.13 451.73 597.11 475.40 597.14 499.07 C 597.05 500.66 597.21 502.66 595.63 503.62 C 591.97 506.56 586.96 504.96 582.84 506.46 C 582.63 521.12 582.83 535.78 582.76 550.44 C 582.76 555.89 582.76 561.34 582.74 566.80 C 592.79 566.50 603.11 568.03 612.88 564.96 C 612.86 566.94 612.94 568.93 613.01 570.92 C 617.00 570.98 620.99 571.00 624.98 570.98 C 625.35 523.00 624.99 475.01 625.16 427.03 C 625.10 417.40 625.34 407.76 624.95 398.13 C 598.28 397.84 571.61 398.07 544.95 397.92 C 530.61 398.25 516.30 396.81 501.96 397.10 C 482.61 396.94 463.27 397.00 443.92 397.07 C 443.94 396.36 443.99 394.95 444.01 394.25 C 480.00 394.34 516.01 394.42 552.00 395.19 C 577.34 395.23 602.68 395.23 628.02 395.26 C 628.14 454.77 628.13 514.28 628.03 573.79 C 458.68 573.82 289.32 573.82 119.97 573.80 C 119.86 513.10 119.90 452.40 119.95 391.70 M 183.67 428.06 C 183.56 452.56 183.87 477.07 183.52 501.55 C 180.58 506.29 173.91 505.41 169.04 505.53 C 169.13 520.54 169.04 535.55 169.09 550.56 C 169.07 555.98 169.09 561.40 169.04 566.82 C 184.84 566.89 200.63 566.75 216.43 566.89 L 216.33 565.70 C 216.38 545.64 216.47 525.57 216.44 505.50 C 211.40 505.61 205.56 505.98 201.83 501.89 C 201.94 477.28 201.84 452.67 201.88 428.06 C 195.81 428.06 189.74 428.06 183.67 428.06 M 237.91 434.03 C 238.09 451.36 237.96 468.69 238.00 486.02 C 238.08 491.42 237.28 496.98 239.09 502.21 C 234.92 506.07 228.98 505.60 223.74 505.49 C 223.70 525.87 223.79 546.25 223.79 566.63 C 240.17 566.53 256.56 566.62 272.94 566.58 C 272.93 566.38 272.91 565.96 272.90 565.76 C 272.92 560.69 272.91 555.63 272.90 550.56 C 272.94 535.55 272.85 520.54 272.95 505.53 C 268.06 505.46 262.19 506.15 258.58 502.09 C 258.22 500.74 258.32 499.32 258.29 497.95 C 258.34 474.65 258.29 451.36 258.31 428.06 C 251.90 428.01 245.48 428.19 239.08 427.94 C 238.28 429.87 237.85 431.93 237.91 434.03 M 295.69 428.06 C 295.68 452.07 295.71 476.09 295.68 500.10 C 296.04 502.26 294.05 503.57 292.34 504.34 C 288.48 505.98 284.22 505.42 280.14 505.51 C 280.22 520.53 280.15 535.55 280.18 550.56 C 280.17 555.98 280.19 561.40 280.14 566.83 C 293.81 566.86 307.48 566.79 321.16 566.87 C 321.16 561.45 321.16 556.03 321.15 550.61 C 321.16 509.76 321.15 468.91 321.16 428.06 C 312.67 428.06 304.18 428.06 295.69 428.06 M 327.68 426.89 C 327.08 429.89 326.90 432.96 326.95 436.02 C 327.15 477.35 326.74 518.68 327.20 560.01 C 327.18 562.63 327.44 565.24 327.92 567.82 L 328.07 566.65 C 341.36 566.95 354.67 566.96 367.96 566.62 L 368.12 567.81 C 369.20 562.58 368.73 557.24 368.89 551.95 C 369.18 539.63 368.90 527.31 369.07 515.00 C 369.12 511.66 368.96 508.33 368.38 505.05 L 367.67 506.89 L 367.73 505.79 C 364.15 505.70 360.51 505.99 356.99 505.23 C 354.59 504.62 351.66 503.00 352.13 500.07 C 352.12 476.07 352.13 452.07 352.13 428.06 C 344.12 428.18 336.10 427.80 328.11 428.29 L 327.68 426.89 M 388.68 426.92 C 388.25 429.24 387.98 431.61 387.97 433.98 C 387.99 454.98 388.07 475.99 387.93 497.00 C 387.91 498.97 388.47 500.88 389.18 502.70 C 385.48 506.24 380.02 505.74 375.31 505.77 C 375.24 520.71 375.29 535.64 375.28 550.57 C 375.27 555.99 375.29 561.41 375.25 566.83 C 392.42 566.83 409.59 566.84 426.77 566.82 C 426.73 561.40 426.74 555.98 426.74 550.56 C 426.73 535.63 426.78 520.69 426.72 505.76 C 422.59 505.65 418.24 506.24 414.36 504.54 C 412.93 503.89 411.21 502.79 411.37 500.99 C 411.26 476.69 411.36 452.37 411.33 428.06 C 403.93 428.18 396.52 427.80 389.13 428.29 L 388.68 426.92 M 448.70 428.06 C 448.62 452.61 448.86 477.17 448.59 501.71 C 446.06 506.69 439.13 505.55 434.44 505.79 C 434.39 520.70 434.44 535.62 434.41 550.54 C 434.40 555.87 434.49 561.21 434.31 566.54 L 434.42 566.53 C 447.03 566.71 459.66 566.48 472.28 566.64 C 472.39 520.45 472.34 474.25 472.35 428.06 C 464.47 428.06 456.58 428.06 448.70 428.06 M 479.67 428.06 C 479.69 473.94 479.61 519.82 479.74 565.70 L 479.66 566.89 C 492.69 566.76 505.72 566.88 518.76 566.82 C 518.72 561.40 518.73 555.98 518.73 550.57 C 518.71 535.63 518.77 520.70 518.70 505.76 C 515.02 505.69 511.25 506.05 507.66 505.07 C 505.81 504.37 503.22 503.32 503.35 500.95 C 503.25 476.65 503.34 452.36 503.31 428.06 C 495.43 428.06 487.55 428.06 479.67 428.06 M 540.69 428.06 C 540.61 452.62 540.85 477.18 540.57 501.73 C 538.02 506.68 531.12 505.56 526.43 505.79 C 526.38 520.71 526.43 535.63 526.41 550.55 C 526.41 555.97 526.42 561.40 526.38 566.82 C 542.66 566.87 558.94 566.79 575.23 566.85 C 575.22 561.41 575.22 555.98 575.22 550.55 C 575.21 535.62 575.23 520.69 575.21 505.76 C 570.16 505.47 563.06 507.00 559.99 501.86 C 560.70 499.66 561.13 497.36 561.08 495.05 C 560.84 472.72 561.17 450.38 560.90 428.05 L 559.84 428.06 C 553.45 428.06 547.07 428.06 540.69 428.06 Z" fill="#231f20" opacity="1.00"/><path d=" M 123.09 394.13 C 129.39 394.42 135.70 394.85 142.02 394.92 C 166.68 394.96 191.34 395.09 216.01 395.12 C 231.47 395.24 246.94 394.73 262.39 395.53 C 271.59 396.09 280.82 395.85 290.04 395.93 C 290.10 397.60 290.21 399.26 290.33 400.93 C 285.96 401.11 281.20 400.22 277.10 402.10 C 275.50 404.11 275.04 406.74 274.14 409.10 C 255.41 408.78 236.67 409.05 217.93 408.96 C 190.05 409.02 162.16 408.75 134.27 409.12 C 134.10 415.40 134.13 421.68 134.29 427.97 C 132.20 433.75 133.02 439.97 132.99 445.98 C 133.00 476.65 132.98 507.32 133.01 537.99 C 133.39 547.00 132.57 556.08 134.19 565.00 C 134.17 566.97 134.06 568.96 133.97 570.94 C 130.33 570.95 126.69 570.96 123.05 570.95 C 122.56 538.32 123.05 505.68 122.85 473.04 C 123.04 446.74 122.54 420.43 123.09 394.13 Z" fill="#2b2727" opacity="1.00"/><path d=" M 443.92 397.07 C 463.27 397.00 482.61 396.94 501.96 397.10 C 516.30 396.81 530.61 398.25 544.95 397.92 C 571.61 398.07 598.28 397.84 624.95 398.13 C 625.34 407.76 625.10 417.40 625.16 427.03 C 624.99 475.01 625.35 523.00 624.98 570.98 C 620.99 571.00 617.00 570.98 613.01 570.92 C 612.94 568.93 612.86 566.94 612.88 564.96 C 613.41 560.66 613.91 556.35 613.88 552.01 C 614.22 513.36 613.80 474.71 614.10 436.06 C 614.06 433.34 613.55 430.66 612.80 428.06 C 612.89 421.75 612.93 415.44 612.80 409.13 C 562.49 408.73 512.17 409.01 461.87 409.05 C 460.78 406.65 460.59 403.45 458.37 401.79 C 453.63 400.32 448.54 401.08 443.66 400.95 C 443.75 399.65 443.84 398.36 443.92 397.07 Z" fill="#2b2727" opacity="1.00"/><path d=" M 277.10 402.10 C 281.20 400.22 285.96 401.11 290.33 400.93 C 294.49 401.01 298.64 401.01 302.80 401.00 C 324.20 400.99 345.60 401.00 367.00 401.00 C 367.75 401.00 369.25 401.00 370.00 401.00 C 390.73 401.00 411.47 400.99 432.20 401.00 C 436.02 401.00 439.84 401.01 443.66 400.95 C 448.54 401.08 453.63 400.32 458.37 401.79 C 460.59 403.45 460.78 406.65 461.87 409.05 C 459.61 410.95 457.22 413.24 454.01 413.00 C 396.67 413.00 339.31 413.00 281.96 413.00 C 278.79 413.21 276.41 410.95 274.14 409.10 C 275.04 406.74 275.50 404.11 277.10 402.10 M 279.16 404.36 C 277.63 405.67 277.58 408.34 279.14 409.65 C 283.72 410.40 288.40 409.94 293.02 410.01 C 346.37 410.00 399.72 409.98 453.06 410.03 C 454.32 410.00 455.56 409.86 456.80 409.61 C 458.33 408.35 457.57 406.06 457.90 404.34 C 455.27 404.18 452.63 404.02 450.00 403.98 C 394.32 404.00 338.65 404.02 282.97 403.97 C 281.69 403.99 280.42 404.12 279.16 404.36 Z" fill="#5b3715" opacity="1.00"/><path d=" M 279.16 404.36 C 280.42 404.12 281.69 403.99 282.97 403.97 C 338.65 404.02 394.32 404.00 450.00 403.98 C 452.63 404.02 455.27 404.18 457.90 404.34 C 457.57 406.06 458.33 408.35 456.80 409.61 C 455.56 409.86 454.32 410.00 453.06 410.03 C 399.72 409.98 346.37 410.00 293.02 410.01 C 288.40 409.94 283.72 410.40 279.14 409.65 C 277.58 408.34 277.63 405.67 279.16 404.36 Z" fill="#724c21" opacity="1.00"/><path d=" M 132.99 445.98 C 133.02 439.97 132.20 433.75 134.29 427.97 C 134.59 466.75 134.34 505.55 134.42 544.34 C 134.32 551.22 134.62 558.12 134.19 565.00 C 132.57 556.08 133.39 547.00 133.01 537.99 C 132.98 507.32 133.00 476.65 132.99 445.98 Z" fill="#171313" opacity="1.00"/><path d=" M 134.29 427.97 C 138.29 428.10 142.29 428.06 146.29 428.06 C 146.28 451.75 146.30 475.43 146.27 499.12 C 146.33 500.59 146.18 502.43 147.76 503.22 C 151.82 506.22 157.13 505.38 161.84 505.53 C 161.77 520.55 161.84 535.57 161.81 550.58 C 156.19 550.55 150.45 550.74 145.01 549.09 C 141.26 548.05 137.82 546.18 134.42 544.34 C 134.34 505.55 134.59 466.75 134.29 427.97 Z" fill="#ffffff" opacity="1.00"/><path d=" M 183.67 428.06 C 189.74 428.06 195.81 428.06 201.88 428.06 C 201.84 452.67 201.94 477.28 201.83 501.89 C 205.56 505.98 211.40 505.61 216.44 505.50 C 216.47 525.57 216.38 545.64 216.33 565.70 C 200.82 565.42 185.30 565.76 169.78 565.50 C 185.10 565.29 200.42 565.43 215.73 565.44 C 215.77 560.49 215.77 555.54 215.75 550.59 C 200.20 550.48 184.64 550.53 169.09 550.56 C 169.04 535.55 169.13 520.54 169.04 505.53 C 173.91 505.41 180.58 506.29 183.52 501.55 C 183.87 477.07 183.56 452.56 183.67 428.06 Z" fill="#ffffff" opacity="1.00"/><path d=" M 237.91 434.03 C 237.85 431.93 238.28 429.87 239.08 427.94 C 239.25 452.69 239.22 477.45 239.09 502.21 C 237.28 496.98 238.08 491.42 238.00 486.02 C 237.96 468.69 238.09 451.36 237.91 434.03 Z" fill="#120e0f" opacity="1.00"/><path d=" M 239.08 427.94 C 245.48 428.19 251.90 428.01 258.31 428.06 C 258.29 451.36 258.34 474.65 258.29 497.95 C 258.32 499.32 258.22 500.74 258.58 502.09 C 262.19 506.15 268.06 505.46 272.95 505.53 C 272.85 520.54 272.94 535.55 272.90 550.56 C 256.68 550.53 240.46 550.48 224.24 550.58 C 224.21 555.65 224.21 560.71 224.24 565.78 C 240.46 565.81 256.68 565.85 272.90 565.76 C 272.91 565.96 272.93 566.38 272.94 566.58 C 256.56 566.62 240.17 566.53 223.79 566.63 C 223.79 546.25 223.70 525.87 223.74 505.49 C 228.98 505.60 234.92 506.07 239.09 502.21 C 239.22 477.45 239.25 452.69 239.08 427.94 Z" fill="#ffffff" opacity="1.00"/><path d=" M 295.69 428.06 C 304.18 428.06 312.67 428.06 321.16 428.06 C 321.15 468.91 321.16 509.76 321.15 550.61 C 307.49 550.46 293.84 550.54 280.18 550.56 C 280.15 535.55 280.22 520.53 280.14 505.51 C 284.22 505.42 288.48 505.98 292.34 504.34 C 294.05 503.57 296.04 502.26 295.68 500.10 C 295.71 476.09 295.68 452.07 295.69 428.06 Z" fill="#ffffff" opacity="1.00"/><path d=" M 327.68 426.89 L 328.11 428.29 C 328.63 431.83 328.39 435.42 328.43 438.99 C 328.41 476.21 328.43 513.43 328.42 550.65 C 328.34 555.98 328.68 561.34 328.07 566.65 L 327.92 567.82 C 327.44 565.24 327.18 562.63 327.20 560.01 C 326.74 518.68 327.15 477.35 326.95 436.02 C 326.90 432.96 327.08 429.89 327.68 426.89 Z" fill="#0e0a0b" opacity="1.00"/><path d=" M 328.11 428.29 C 336.10 427.80 344.12 428.18 352.13 428.06 C 352.13 452.07 352.12 476.07 352.13 500.07 C 351.66 503.00 354.59 504.62 356.99 505.23 C 360.51 505.99 364.15 505.70 367.73 505.79 L 367.67 506.89 C 367.47 521.45 367.64 536.02 367.60 550.59 C 354.54 550.53 341.47 550.43 328.42 550.65 C 328.43 513.43 328.41 476.21 328.43 438.99 C 328.39 435.42 328.63 431.83 328.11 428.29 Z" fill="#ffffff" opacity="1.00"/><path d=" M 388.68 426.92 L 389.13 428.29 C 389.82 434.82 389.27 441.42 389.44 447.98 C 389.26 466.22 389.79 484.48 389.18 502.70 C 388.47 500.88 387.91 498.97 387.93 497.00 C 388.07 475.99 387.99 454.98 387.97 433.98 C 387.98 431.61 388.25 429.24 388.68 426.92 Z" fill="#0e0a0b" opacity="1.00"/><path d=" M 389.13 428.29 C 396.52 427.80 403.93 428.18 411.33 428.06 C 411.36 452.37 411.26 476.69 411.37 500.99 C 411.21 502.79 412.93 503.89 414.36 504.54 C 418.24 506.24 422.59 505.65 426.72 505.76 C 426.78 520.69 426.73 535.63 426.74 550.56 C 409.59 550.52 392.43 550.50 375.28 550.57 C 375.29 535.64 375.24 520.71 375.31 505.77 C 380.02 505.74 385.48 506.24 389.18 502.70 C 389.79 484.48 389.26 466.22 389.44 447.98 C 389.27 441.42 389.82 434.82 389.13 428.29 Z" fill="#ffffff" opacity="1.00"/><path d=" M 448.70 428.06 C 456.58 428.06 464.47 428.06 472.35 428.06 C 472.34 474.25 472.39 520.45 472.28 566.64 C 459.66 566.48 447.03 566.71 434.42 566.53 C 446.78 564.94 459.30 566.23 471.73 565.78 C 471.76 560.71 471.77 555.65 471.75 550.59 C 459.30 550.47 446.86 550.55 434.41 550.54 C 434.44 535.62 434.39 520.70 434.44 505.79 C 439.13 505.55 446.06 506.69 448.59 501.71 C 448.86 477.17 448.62 452.61 448.70 428.06 Z" fill="#ffffff" opacity="1.00"/><path d=" M 479.67 428.06 C 487.55 428.06 495.43 428.06 503.31 428.06 C 503.34 452.36 503.25 476.65 503.35 500.95 C 503.22 503.32 505.81 504.37 507.66 505.07 C 511.25 506.05 515.02 505.69 518.70 505.76 C 518.77 520.70 518.71 535.63 518.73 550.57 C 505.90 550.53 493.08 550.48 480.25 550.59 C 480.23 555.54 480.23 560.49 480.27 565.44 C 492.93 565.49 505.59 565.24 518.25 565.48 C 505.41 565.70 492.58 565.50 479.74 565.70 C 479.61 519.82 479.69 473.94 479.67 428.06 Z" fill="#ffffff" opacity="1.00"/><path d=" M 540.69 428.06 C 547.07 428.06 553.45 428.06 559.84 428.06 C 559.93 452.66 559.62 477.27 559.99 501.86 C 563.06 507.00 570.16 505.47 575.21 505.76 C 575.23 520.69 575.21 535.62 575.22 550.55 C 558.95 550.52 542.68 550.52 526.41 550.55 C 526.43 535.63 526.38 520.71 526.43 505.79 C 531.12 505.56 538.02 506.68 540.57 501.73 C 540.85 477.18 540.61 452.62 540.69 428.06 Z" fill="#ffffff" opacity="1.00"/><path d=" M 559.84 428.06 L 560.90 428.05 C 561.17 450.38 560.84 472.72 561.08 495.05 C 561.13 497.36 560.70 499.66 559.99 501.86 C 559.62 477.27 559.93 452.66 559.84 428.06 Z" fill="#120e0f" opacity="1.00"/><path d=" M 597.12 428.06 C 602.35 428.06 607.57 428.06 612.80 428.06 C 612.49 467.86 612.75 507.66 612.67 547.46 C 603.16 551.36 592.79 550.62 582.76 550.44 C 582.83 535.78 582.63 521.12 582.84 506.46 C 586.96 504.96 591.97 506.56 595.63 503.62 C 597.21 502.66 597.05 500.66 597.14 499.07 C 597.11 475.40 597.13 451.73 597.12 428.06 Z" fill="#ffffff" opacity="1.00"/><path d=" M 612.80 428.06 C 613.55 430.66 614.06 433.34 614.10 436.06 C 613.80 474.71 614.22 513.36 613.88 552.01 C 613.91 556.35 613.41 560.66 612.88 564.96 C 612.52 559.13 612.73 553.29 612.67 547.46 C 612.75 507.66 612.49 467.86 612.80 428.06 Z" fill="#161212" opacity="1.00"/><path d=" M 367.67 506.89 L 368.38 505.05 C 368.96 508.33 369.12 511.66 369.07 515.00 C 368.90 527.31 369.18 539.63 368.89 551.95 C 368.73 557.24 369.20 562.58 368.12 567.81 L 367.96 566.62 C 367.29 561.30 367.68 555.93 367.60 550.59 C 367.64 536.02 367.47 521.45 367.67 506.89 Z" fill="#110d0e" opacity="1.00"/><path d=" M 134.42 544.34 C 137.82 546.18 141.26 548.05 145.01 549.09 C 150.45 550.74 156.19 550.55 161.81 550.58 C 161.81 556.00 161.80 561.41 161.84 566.83 C 152.61 566.60 143.16 567.80 134.19 565.00 C 134.62 558.12 134.32 551.22 134.42 544.34 Z" fill="#bcbdbf" opacity="1.00"/><path d=" M 582.76 550.44 C 592.79 550.62 603.16 551.36 612.67 547.46 C 612.73 553.29 612.52 559.13 612.88 564.96 C 603.11 568.03 592.79 566.50 582.74 566.80 C 582.76 561.34 582.76 555.89 582.76 550.44 Z" fill="#bcbdbf" opacity="1.00"/><path d=" M 280.18 550.56 C 293.84 550.54 307.49 550.46 321.15 550.61 C 321.16 556.03 321.16 561.45 321.16 566.87 C 307.48 566.79 293.81 566.86 280.14 566.83 C 280.19 561.40 280.17 555.98 280.18 550.56 Z" fill="#bcbdbf" opacity="1.00"/><path d=" M 169.09 550.56 C 184.64 550.53 200.20 550.48 215.75 550.59 C 215.77 555.54 215.77 560.49 215.73 565.44 C 200.42 565.43 185.10 565.29 169.78 565.50 C 185.30 565.76 200.82 565.42 216.33 565.70 L 216.43 566.89 C 200.63 566.75 184.84 566.89 169.04 566.82 C 169.09 561.40 169.07 555.98 169.09 550.56 Z" fill="#bcbdbf" opacity="1.00"/><path d=" M 224.24 550.58 C 240.46 550.48 256.68 550.53 272.90 550.56 C 272.91 555.63 272.92 560.69 272.90 565.76 C 256.68 565.85 240.46 565.81 224.24 565.78 C 224.21 560.71 224.21 555.65 224.24 550.58 Z" fill="#bcbdbf" opacity="1.00"/><path d=" M 328.42 550.65 C 341.47 550.43 354.54 550.53 367.60 550.59 C 367.68 555.93 367.29 561.30 367.96 566.62 C 354.67 566.96 341.36 566.95 328.07 566.65 C 328.68 561.34 328.34 555.98 328.42 550.65 Z" fill="#bcbdbf" opacity="1.00"/><path d=" M 375.28 550.57 C 392.43 550.50 409.59 550.52 426.74 550.56 C 426.74 555.98 426.73 561.40 426.77 566.82 C 409.59 566.84 392.42 566.83 375.25 566.83 C 375.29 561.41 375.27 555.99 375.28 550.57 Z" fill="#bcbdbf" opacity="1.00"/><path d=" M 434.41 550.54 C 446.86 550.55 459.30 550.47 471.75 550.59 C 471.77 555.65 471.76 560.71 471.73 565.78 C 459.30 566.23 446.78 564.94 434.42 566.53 L 434.31 566.54 C 434.49 561.21 434.40 555.87 434.41 550.54 Z" fill="#bcbdbf" opacity="1.00"/><path d=" M 480.25 550.59 C 493.08 550.48 505.90 550.53 518.73 550.57 C 518.73 555.98 518.72 561.40 518.76 566.82 C 505.72 566.88 492.69 566.76 479.66 566.89 L 479.74 565.70 C 492.58 565.50 505.41 565.70 518.25 565.48 C 505.59 565.24 492.93 565.49 480.27 565.44 C 480.23 560.49 480.23 555.54 480.25 550.59 Z" fill="#bcbdbf" opacity="1.00"/><path d=" M 526.41 550.55 C 542.68 550.52 558.95 550.52 575.22 550.55 C 575.22 555.98 575.22 561.41 575.23 566.85 C 558.94 566.79 542.66 566.87 526.38 566.82 C 526.42 561.40 526.41 555.97 526.41 550.55 Z" fill="#bcbdbf" opacity="1.00"/><path d=" M 81.96 582.13 C 90.81 590.21 103.42 593.62 115.16 591.28 C 121.35 589.93 127.70 589.96 134.00 590.10 C 297.33 590.13 460.66 590.07 623.99 590.11 C 630.70 590.51 637.29 592.81 644.07 591.80 C 652.09 591.23 659.58 587.89 666.04 583.22 C 664.64 589.80 662.30 596.54 657.18 601.18 C 651.77 606.27 644.40 609.16 636.96 609.01 C 461.65 609.01 286.33 608.98 111.01 609.02 C 100.98 609.25 90.93 603.81 86.02 595.00 C 83.65 591.09 82.73 586.56 81.96 582.13 Z" fill="#302c2c" opacity="1.00"/><path d=" M 665.99 594.41 C 667.02 591.16 668.10 587.91 668.85 584.59 C 669.19 611.05 668.90 637.53 669.00 663.99 C 669.20 672.52 665.07 681.22 657.76 685.81 C 650.46 690.75 640.53 691.29 632.71 687.26 C 624.39 683.22 619.03 674.20 619.02 665.00 C 618.96 647.33 619.02 629.66 619.00 611.99 C 619.75 611.99 621.25 611.99 622.00 611.99 C 621.99 628.34 622.06 644.70 621.93 661.05 C 621.97 665.66 622.14 670.48 624.26 674.69 C 627.78 682.12 635.81 687.11 644.03 686.98 C 651.97 687.08 659.73 682.42 663.40 675.39 C 665.67 671.31 666.00 666.55 666.05 661.99 C 665.97 639.46 665.99 616.93 665.99 594.41 Z" fill="#1a1617" opacity="1.00"/><path d=" M 82.14 594.76 C 85.91 600.26 90.10 605.86 96.36 608.67 C 105.48 613.47 116.04 611.59 125.90 612.07 C 126.17 627.38 125.89 642.70 126.04 658.01 C 126.05 661.64 126.17 665.29 125.64 668.89 C 124.45 676.21 119.21 682.65 112.32 685.38 C 102.34 689.79 89.45 685.12 84.59 675.35 C 82.13 671.02 81.90 665.91 81.95 661.05 C 82.13 638.95 81.81 616.85 82.14 594.76 Z" fill="#302c2c" opacity="1.00"/><path d=" M 650.96 609.01 C 657.55 606.14 662.34 600.43 665.99 594.41 C 665.99 616.93 665.97 639.46 666.05 661.99 C 666.00 666.55 665.67 671.31 663.40 675.39 C 659.73 682.42 651.97 687.08 644.03 686.98 C 635.81 687.11 627.78 682.12 624.26 674.69 C 622.14 670.48 621.97 665.66 621.93 661.05 C 622.06 644.70 621.99 628.34 622.00 611.99 C 631.66 611.77 641.91 613.28 650.96 609.01 Z" fill="#302c2c" opacity="1.00"/></svg>