<?xml version="1.0" ?><!DOCTYPE svg  PUBLIC '-//W3C//DTD SVG 1.1//EN'  'http://www.w3.org/Graphics/SVG/1.1/DTD/svg11.dtd'><svg height="720pt" version="1.1" viewBox="0 0 720 720" width="720pt" xmlns="http://www.w3.org/2000/svg"><path d=" M 576.64 44.66 C 584.87 39.93 596.37 40.94 603.15 47.80 C 606.93 51.68 609.06 56.72 611.69 61.36 C 614.65 66.52 615.43 72.76 613.81 78.48 C 612.13 81.43 610.65 84.67 608.02 86.91 C 603.09 90.35 597.24 92.10 592.06 95.10 C 586.17 98.72 579.80 101.45 573.51 104.30 C 565.94 108.74 557.73 111.90 550.02 116.06 C 545.15 119.15 539.80 121.34 534.57 123.72 C 533.52 124.25 532.48 124.78 531.44 125.31 C 530.38 125.72 529.32 126.14 528.28 126.57 C 527.90 126.93 527.14 127.64 526.75 127.99 C 518.55 131.76 510.19 135.37 502.59 140.28 C 528.69 182.80 554.80 225.32 580.68 267.97 C 580.03 267.91 578.74 267.81 578.09 267.75 C 571.37 257.72 565.41 247.18 558.95 236.97 C 539.33 205.10 519.90 173.10 500.12 141.33 C 490.37 145.02 481.39 150.34 472.12 155.05 C 495.30 193.01 518.72 230.83 541.88 268.81 C 540.36 268.64 538.87 268.48 537.37 268.32 C 516.79 234.70 496.22 201.07 475.63 167.45 C 473.36 163.68 471.16 159.85 468.46 156.36 C 459.16 162.13 448.68 165.60 439.32 171.26 C 433.45 174.46 427.22 176.91 421.32 180.04 C 414.08 184.05 406.27 186.94 399.15 191.17 C 392.66 194.98 385.51 197.46 378.92 201.07 C 371.79 205.03 364.16 208.02 357.10 212.11 C 350.59 215.84 343.41 218.24 336.89 221.93 C 330.43 225.63 323.54 228.47 316.97 231.95 C 308.73 236.56 299.77 239.72 291.68 244.60 C 280.22 250.19 268.85 255.94 257.32 261.38 C 250.18 265.10 243.18 269.22 235.58 271.95 C 233.53 271.98 231.49 271.91 229.46 271.85 C 248.15 261.87 267.40 252.96 286.28 243.31 C 388.73 192.41 491.16 141.46 593.63 90.60 C 598.91 87.82 605.24 85.90 608.60 80.60 C 611.99 75.46 611.74 68.58 608.73 63.34 C 605.12 56.95 602.18 49.00 594.73 46.24 C 589.24 43.68 582.93 44.91 577.82 47.75 C 431.57 120.51 285.24 193.11 138.99 265.85 C 133.15 268.64 127.47 272.98 120.59 271.88 C 120.97 271.41 121.74 270.47 122.12 269.99 C 132.27 265.97 141.58 260.19 151.50 255.70 C 152.00 255.45 153.00 254.96 153.51 254.71 C 156.94 253.14 160.43 251.67 163.68 249.74 C 170.73 245.67 178.46 242.87 185.43 238.66 C 186.77 237.99 188.13 237.34 189.48 236.69 C 190.48 236.23 191.48 235.77 192.49 235.32 C 197.15 233.02 202.06 231.20 206.44 228.38 C 212.47 225.02 218.88 222.38 225.03 219.25 C 231.64 215.52 238.74 212.77 245.43 209.21 C 252.58 205.01 260.20 201.69 267.75 198.30 C 268.12 197.96 268.86 197.28 269.23 196.95 C 276.42 193.74 283.68 190.53 290.44 186.47 C 310.88 177.18 330.55 166.32 350.94 156.92 C 367.51 147.94 384.83 140.40 401.46 131.51 C 427.24 119.07 452.73 106.04 478.43 93.44 C 487.81 88.37 497.69 84.30 507.03 79.15 C 530.29 67.75 553.43 56.14 576.64 44.66 Z" fill="#000000" opacity="1.00"/><path d=" M 577.82 47.75 C 582.93 44.91 589.24 43.68 594.73 46.24 C 602.18 49.00 605.12 56.95 608.73 63.34 C 611.74 68.58 611.99 75.46 608.60 80.60 C 605.24 85.90 598.91 87.82 593.63 90.60 C 491.16 141.46 388.73 192.41 286.28 243.31 C 267.40 252.96 248.15 261.87 229.46 271.85 C 231.49 271.91 233.53 271.98 235.58 271.95 C 335.27 272.05 434.97 271.99 534.67 271.98 C 535.55 270.75 536.45 269.53 537.37 268.32 C 538.87 268.48 540.36 268.64 541.88 268.81 C 518.72 230.83 495.30 193.01 472.12 155.05 C 481.39 150.34 490.37 145.02 500.12 141.33 C 519.90 173.10 539.33 205.10 558.95 236.97 C 565.41 247.18 571.37 257.72 578.09 267.75 C 578.74 267.81 580.03 267.91 580.68 267.97 C 582.75 268.09 584.84 267.98 586.91 268.24 C 588.24 269.02 588.57 270.73 589.35 271.98 C 617.93 272.07 646.52 271.90 675.10 272.06 C 685.61 275.25 696.20 281.17 701.75 291.06 C 705.15 297.26 708.79 303.76 709.02 311.01 C 708.99 362.01 708.99 413.01 709.02 464.01 C 709.18 469.12 706.17 473.52 703.52 477.62 C 702.45 476.92 701.45 476.23 700.39 475.59 C 704.37 472.24 706.30 467.09 706.05 461.95 C 705.91 435.99 706.09 410.03 705.94 384.08 C 693.09 383.98 680.23 383.84 667.38 384.17 C 667.31 393.13 667.54 402.10 667.43 411.06 C 667.45 417.86 663.21 424.12 657.56 427.62 C 652.81 430.15 647.18 429.18 642.02 429.33 C 452.99 429.28 263.96 429.36 74.94 429.29 C 68.52 429.43 63.57 424.45 60.51 419.32 C 58.56 416.28 58.35 412.56 58.33 409.06 C 58.33 400.74 58.59 392.41 58.27 384.09 C 45.86 383.90 33.46 384.00 21.05 384.05 C 20.91 410.36 21.06 436.68 20.98 462.99 C 20.87 467.81 22.97 472.44 26.59 475.60 C 25.53 476.24 24.51 476.93 23.48 477.63 C 20.83 473.51 17.81 469.11 17.98 463.98 C 18.01 412.97 18.01 361.96 17.98 310.94 C 18.24 303.70 21.88 297.19 25.29 290.99 C 30.86 281.14 41.41 275.23 51.90 272.07 C 74.79 271.83 97.70 272.20 120.59 271.88 C 127.47 272.98 133.15 268.64 138.99 265.85 C 285.24 193.11 431.57 120.51 577.82 47.75 M 49.08 276.21 C 40.05 279.53 31.69 285.51 27.02 294.08 C 23.86 299.87 20.82 306.19 20.95 312.95 C 21.08 335.63 20.94 358.31 21.02 381.00 C 31.69 380.99 42.36 381.04 53.03 380.95 C 55.69 380.90 58.33 381.29 60.92 381.87 C 61.64 388.56 61.32 395.29 61.45 402.00 C 61.46 404.42 61.46 406.84 61.40 409.26 C 61.30 413.46 62.28 418.19 65.68 420.98 C 68.11 424.19 71.77 426.69 75.95 426.37 C 267.66 426.31 459.36 426.39 651.07 426.33 C 654.90 426.39 657.97 423.82 660.24 420.99 C 663.64 418.20 664.63 413.45 664.53 409.26 C 664.46 406.84 664.45 404.42 664.42 402.00 C 664.06 395.76 664.35 389.51 664.21 383.26 C 665.11 382.54 666.06 381.86 666.91 381.06 C 679.93 380.92 692.96 381.05 705.99 380.99 C 706.05 358.34 705.93 335.69 706.05 313.04 C 706.22 306.48 703.33 300.35 700.33 294.69 C 695.01 284.69 684.86 277.79 674.03 275.09 C 632.67 274.87 591.30 275.06 549.95 275.00 C 387.28 275.00 224.61 275.00 61.95 275.00 C 57.65 275.10 53.11 274.34 49.08 276.21 Z" fill="#212322" opacity="1.00"/><path d=" M 49.08 276.21 C 53.11 274.34 57.65 275.10 61.95 275.00 C 224.61 275.00 387.28 275.00 549.95 275.00 C 591.30 275.06 632.67 274.87 674.03 275.09 C 684.86 277.79 695.01 284.69 700.33 294.69 C 703.33 300.35 706.22 306.48 706.05 313.04 C 705.93 335.69 706.05 358.34 705.99 380.99 C 692.96 381.05 679.93 380.92 666.91 381.06 C 667.15 366.38 666.89 351.69 667.04 337.01 C 667.21 328.99 665.56 320.24 659.59 314.45 C 657.09 311.89 653.48 310.96 650.00 311.00 C 459.33 311.00 268.66 311.01 77.99 310.99 C 74.26 310.88 70.45 312.09 67.94 314.94 C 62.84 320.24 61.01 327.83 61.01 335.01 C 60.91 350.63 61.11 366.25 60.92 381.87 C 58.33 381.29 55.69 380.90 53.03 380.95 C 42.36 381.04 31.69 380.99 21.02 381.00 C 20.94 358.31 21.08 335.63 20.95 312.95 C 20.82 306.19 23.86 299.87 27.02 294.08 C 31.69 285.51 40.05 279.53 49.08 276.21 Z" fill="#4d5150" opacity="1.00"/><path d=" M 67.94 314.94 C 70.45 312.09 74.26 310.88 77.99 310.99 C 268.66 311.01 459.33 311.00 650.00 311.00 C 653.48 310.96 657.09 311.89 659.59 314.45 C 665.56 320.24 667.21 328.99 667.04 337.01 C 666.89 351.69 667.15 366.38 666.91 381.06 C 666.06 381.86 665.11 382.54 664.21 383.26 C 663.76 367.49 664.09 351.70 664.02 335.93 C 664.00 329.06 662.65 321.45 657.38 316.58 C 655.44 314.64 652.67 313.99 650.01 314.00 C 459.34 314.00 268.65 314.01 77.97 313.99 C 73.72 313.65 69.96 316.32 67.85 319.84 C 64.41 325.19 63.90 331.76 63.97 337.95 C 64.05 359.30 63.97 380.65 64.02 402.00 C 63.38 402.00 62.09 402.00 61.45 402.00 C 61.32 395.29 61.64 388.56 60.92 381.87 C 61.11 366.25 60.91 350.63 61.01 335.01 C 61.01 327.83 62.84 320.24 67.94 314.94 Z" fill="#383a39" opacity="1.00"/><path d=" M 67.85 319.84 C 69.96 316.32 73.72 313.65 77.97 313.99 C 268.65 314.01 459.34 314.00 650.01 314.00 C 652.67 313.99 655.44 314.64 657.38 316.58 C 662.65 321.45 664.00 329.06 664.02 335.93 C 664.09 351.70 663.76 367.49 664.21 383.26 C 664.35 389.51 664.06 395.76 664.42 402.00 C 662.88 401.99 661.36 401.98 659.84 401.98 C 659.65 400.16 659.62 398.31 659.18 396.54 C 657.66 392.93 652.44 392.23 649.53 394.45 C 647.13 396.18 647.55 399.39 647.20 401.97 C 645.14 401.97 643.10 401.99 641.05 402.00 C 640.96 386.00 640.99 369.99 641.03 354.00 C 641.10 347.56 639.76 340.64 635.17 335.84 C 632.85 333.30 629.46 332.00 626.06 332.02 C 453.04 331.95 280.01 332.06 106.99 331.96 C 101.61 332.15 95.30 330.95 90.89 334.85 C 85.77 339.32 83.98 346.43 83.99 353.00 C 83.96 369.33 84.08 385.67 83.96 402.00 C 83.26 402.00 81.86 402.00 81.16 402.00 C 80.62 402.00 79.54 402.00 79.00 402.00 C 74.01 402.00 69.01 402.00 64.02 402.00 C 63.97 380.65 64.05 359.30 63.97 337.95 C 63.90 331.76 64.41 325.19 67.85 319.84 Z" fill="#4d5150" opacity="1.00"/><path d=" M 90.89 334.85 C 95.30 330.95 101.61 332.15 106.99 331.96 C 280.01 332.06 453.04 331.95 626.06 332.02 C 629.46 332.00 632.85 333.30 635.17 335.84 C 639.76 340.64 641.10 347.56 641.03 354.00 C 640.99 369.99 640.96 386.00 641.05 402.00 C 640.27 402.00 638.73 402.01 637.95 402.02 C 638.08 386.00 637.95 369.99 638.03 353.97 C 638.12 347.52 636.52 339.99 630.77 336.23 C 625.85 334.03 620.23 335.24 615.02 334.98 C 446.01 335.02 277.00 335.00 107.99 334.98 C 102.68 335.29 96.08 333.58 92.02 338.00 C 87.24 343.08 86.74 350.44 86.96 357.05 C 87.06 372.03 86.95 387.02 87.05 402.00 C 86.27 402.00 84.73 402.00 83.96 402.00 C 84.08 385.67 83.96 369.33 83.99 353.00 C 83.98 346.43 85.77 339.32 90.89 334.85 Z" fill="#383a39" opacity="1.00"/><path d=" M 92.02 338.00 C 96.08 333.58 102.68 335.29 107.99 334.98 C 277.00 335.00 446.01 335.02 615.02 334.98 C 620.23 335.24 625.85 334.03 630.77 336.23 C 636.52 339.99 638.12 347.52 638.03 353.97 C 637.95 369.99 638.08 386.00 637.95 402.02 C 637.46 402.03 636.47 402.04 635.98 402.05 L 634.70 402.07 C 634.63 408.36 634.62 414.66 634.67 420.95 L 634.35 420.95 C 634.32 414.64 634.30 408.33 634.40 402.03 L 633.20 402.02 C 629.02 402.00 624.85 401.99 620.68 401.95 C 620.24 398.89 619.85 395.00 616.60 393.61 C 614.31 393.08 611.39 392.87 609.64 394.74 C 607.65 396.58 607.75 399.49 607.33 401.96 C 605.17 401.96 603.02 401.98 600.88 401.98 C 600.49 399.62 601.12 396.68 599.12 394.92 C 597.24 392.83 594.01 393.00 591.56 393.74 C 588.63 395.39 588.52 399.02 588.28 401.97 C 584.03 401.99 579.79 402.01 575.55 402.00 C 575.01 402.00 573.93 402.00 573.40 402.00 C 569.18 402.00 564.96 402.00 560.75 401.97 C 560.44 399.54 561.12 396.61 559.27 394.66 C 557.08 392.02 552.64 391.74 550.26 394.27 C 547.94 396.14 548.59 399.36 548.31 401.97 C 545.68 401.98 543.06 401.97 540.44 401.95 C 540.36 398.76 540.71 394.67 537.53 392.79 C 535.07 391.96 531.76 391.69 529.86 393.81 C 527.50 395.87 528.45 399.24 528.40 401.97 C 526.17 401.97 523.95 401.96 521.73 401.96 C 521.44 399.36 522.09 396.11 519.72 394.29 C 516.85 391.12 511.14 392.52 509.72 396.42 C 509.35 398.24 509.37 400.11 509.27 401.96 C 505.33 401.98 501.40 402.00 497.47 402.07 C 496.86 402.07 495.62 402.07 495.01 402.07 C 491.23 402.02 487.45 401.97 483.67 401.95 C 483.25 398.89 482.86 395.02 479.63 393.62 C 477.32 393.07 474.39 392.88 472.62 394.77 C 470.64 396.60 470.76 399.51 470.32 401.96 C 468.18 401.96 466.03 401.98 463.90 401.98 C 463.49 399.62 464.11 396.69 462.12 394.93 C 460.23 392.81 456.96 392.99 454.49 393.78 C 451.62 395.47 451.51 399.03 451.28 401.97 C 446.57 402.00 441.87 402.00 437.16 402.00 C 436.62 402.00 435.55 402.00 435.01 402.00 C 431.25 402.00 427.49 401.99 423.74 401.97 C 423.46 399.34 424.17 396.04 421.78 394.18 C 419.50 391.94 415.47 391.94 413.26 394.27 C 410.95 396.14 411.58 399.37 411.31 401.97 C 408.68 401.98 406.06 401.96 403.44 401.95 C 403.37 398.75 403.71 394.64 400.50 392.77 C 398.04 391.96 394.74 391.70 392.85 393.83 C 390.49 395.88 391.47 399.24 391.41 401.97 C 389.18 401.97 386.95 401.97 384.73 401.96 C 384.50 399.18 385.02 395.66 382.29 393.90 C 379.31 391.17 374.07 392.76 372.72 396.42 C 372.35 398.24 372.37 400.12 372.26 401.98 C 367.50 401.98 362.75 401.99 357.99 402.07 C 357.37 402.07 356.14 402.07 355.52 402.07 C 351.90 402.02 348.29 401.97 344.67 401.94 C 344.02 399.54 344.06 396.66 342.11 394.85 C 340.26 392.79 337.03 393.00 334.63 393.79 C 331.73 395.43 331.63 399.04 331.30 401.97 C 329.14 401.97 326.98 401.98 324.83 401.98 C 324.64 400.16 324.61 398.30 324.16 396.53 C 322.27 392.06 314.70 392.05 312.89 396.59 C 312.43 398.34 312.38 400.17 312.19 401.97 C 308.46 402.00 304.73 402.00 301.00 402.00 C 300.47 402.00 299.42 402.00 298.89 402.00 C 294.16 402.01 289.42 401.99 284.69 401.97 C 284.40 399.35 285.01 396.12 282.68 394.26 C 280.47 391.94 276.49 391.97 274.20 394.15 C 271.79 396.01 272.52 399.33 272.24 401.97 C 269.33 401.98 266.42 402.00 263.51 402.03 C 263.87 399.82 264.97 397.34 263.56 395.28 C 262.14 391.95 257.76 391.53 254.82 392.88 C 251.67 394.76 251.86 398.74 251.61 401.93 C 249.60 401.93 247.60 401.95 245.60 401.97 C 245.42 399.33 245.94 396.15 243.59 394.30 C 241.39 391.88 237.44 392.07 235.09 394.15 C 232.58 395.90 233.63 399.39 233.22 401.97 C 229.33 401.99 225.44 402.00 221.55 402.00 C 221.01 402.00 219.93 402.00 219.40 402.00 C 214.56 402.00 209.72 402.01 204.88 401.98 C 204.62 399.15 204.95 395.56 201.98 394.00 C 199.33 392.74 195.21 392.76 193.60 395.67 C 192.36 397.51 192.60 399.86 192.29 401.97 C 190.10 401.98 187.91 401.98 185.72 401.98 C 185.56 399.00 185.52 395.33 182.49 393.75 C 180.03 392.98 176.79 392.84 174.92 394.94 C 172.94 396.70 173.54 399.62 173.15 401.98 C 169.43 401.99 165.70 401.99 161.98 402.04 L 160.73 402.06 C 160.62 408.36 160.60 414.66 160.71 420.95 L 160.39 420.95 C 160.30 414.64 160.29 408.33 160.43 402.03 L 159.20 402.02 C 154.64 402.00 150.09 401.99 145.53 401.97 C 145.33 399.39 145.88 396.25 143.64 394.38 C 141.47 391.96 137.50 391.97 135.11 394.06 C 132.63 395.90 133.47 399.31 133.17 401.97 C 130.36 401.98 127.55 401.98 124.74 401.99 C 124.83 399.64 125.69 396.99 124.15 394.92 C 122.01 391.02 115.19 391.21 113.41 395.33 C 112.07 397.37 113.16 399.81 113.42 402.00 C 110.89 401.99 108.37 402.00 105.85 402.01 C 106.23 399.61 107.18 396.72 105.03 394.86 C 102.57 391.47 96.94 391.96 94.82 395.44 C 93.96 397.50 93.80 399.76 93.41 401.94 C 91.29 401.95 89.17 401.99 87.05 402.00 C 86.95 387.02 87.06 372.03 86.96 357.05 C 86.74 350.44 87.24 343.08 92.02 338.00 M 293.89 354.88 C 300.61 355.23 307.36 354.84 314.10 355.09 C 314.29 357.00 313.74 359.28 315.16 360.87 C 316.69 363.08 319.58 363.00 321.97 363.03 C 352.67 362.93 383.37 363.08 414.06 362.96 C 418.36 363.40 420.81 358.87 419.88 355.08 C 426.29 354.85 432.72 355.22 439.13 354.89 C 442.03 355.06 442.95 350.94 440.70 349.44 C 437.19 348.63 433.55 349.06 429.98 348.99 C 387.98 349.01 345.98 349.00 303.99 349.00 C 300.33 349.05 296.64 348.72 293.01 349.24 C 289.92 349.92 290.67 355.21 293.89 354.88 Z" fill="#4d5150" opacity="1.00"/><path d=" M 293.89 354.88 C 290.67 355.21 289.92 349.92 293.01 349.24 C 296.64 348.72 300.33 349.05 303.99 349.00 C 345.98 349.00 387.98 349.01 429.98 348.99 C 433.55 349.06 437.19 348.63 440.70 349.44 C 442.95 350.94 442.03 355.06 439.13 354.89 C 432.72 355.22 426.29 354.85 419.88 355.08 C 384.62 354.95 349.36 354.94 314.10 355.09 C 307.36 354.84 300.61 355.23 293.89 354.88 Z" fill="#212322" opacity="1.00"/><path d=" M 314.10 355.09 C 349.36 354.94 384.62 354.95 419.88 355.08 C 420.81 358.87 418.36 363.40 414.06 362.96 C 383.37 363.08 352.67 362.93 321.97 363.03 C 319.58 363.00 316.69 363.08 315.16 360.87 C 313.74 359.28 314.29 357.00 314.10 355.09 Z" fill="#000000" opacity="1.00"/><path d=" M 21.05 384.05 C 33.46 384.00 45.86 383.90 58.27 384.09 C 58.59 392.41 58.33 400.74 58.33 409.06 C 58.35 412.56 58.56 416.28 60.51 419.32 C 63.57 424.45 68.52 429.43 74.94 429.29 C 263.96 429.36 452.99 429.28 642.02 429.33 C 647.18 429.18 652.81 430.15 657.56 427.62 C 663.21 424.12 667.45 417.86 667.43 411.06 C 667.54 402.10 667.31 393.13 667.38 384.17 C 680.23 383.84 693.09 383.98 705.94 384.08 C 706.09 410.03 705.91 435.99 706.05 461.95 C 706.30 467.09 704.37 472.24 700.39 475.59 C 695.31 474.61 690.13 475.05 685.00 475.00 C 470.66 475.00 256.32 475.00 41.97 475.00 C 36.84 475.05 31.66 474.60 26.59 475.60 C 22.97 472.44 20.87 467.81 20.98 462.99 C 21.06 436.68 20.91 410.36 21.05 384.05 Z" fill="#383a39" opacity="1.00"/><path d=" M 113.41 395.33 C 115.19 391.21 122.01 391.02 124.15 394.92 C 125.69 396.99 124.83 399.64 124.74 401.99 C 123.49 402.00 122.24 402.02 120.99 402.05 C 120.37 402.05 119.14 402.05 118.52 402.05 C 116.82 402.02 115.12 402.01 113.42 402.00 C 113.16 399.81 112.07 397.37 113.41 395.33 Z" fill="#000000" opacity="1.00"/><path d=" M 254.82 392.88 C 257.76 391.53 262.14 391.95 263.56 395.28 C 264.97 397.34 263.87 399.82 263.51 402.03 L 261.59 402.06 C 260.94 402.06 259.65 402.06 259.01 402.05 C 256.54 402.01 254.07 401.93 251.61 401.93 C 251.86 398.74 251.67 394.76 254.82 392.88 Z" fill="#000000" opacity="1.00"/><path d=" M 392.85 393.83 C 394.74 391.70 398.04 391.96 400.50 392.77 C 403.71 394.64 403.37 398.75 403.44 401.95 C 401.95 401.95 400.46 401.98 398.97 402.02 L 397.64 402.05 C 397.58 408.35 397.58 414.65 397.58 420.96 L 397.37 420.96 C 397.40 414.64 397.36 408.33 397.46 402.03 L 396.21 402.01 C 394.60 401.99 393.00 401.97 391.41 401.97 C 391.47 399.24 390.49 395.88 392.85 393.83 Z" fill="#000000" opacity="1.00"/><path d=" M 529.86 393.81 C 531.76 391.69 535.07 391.96 537.53 392.79 C 540.71 394.67 540.36 398.76 540.44 401.95 C 539.58 401.96 537.85 401.97 536.99 401.98 C 536.46 401.98 535.41 401.99 534.89 401.99 C 532.72 402.00 530.56 401.97 528.40 401.97 C 528.45 399.24 527.50 395.87 529.86 393.81 Z" fill="#000000" opacity="1.00"/><path d=" M 94.82 395.44 C 96.94 391.96 102.57 391.47 105.03 394.86 C 107.18 396.72 106.23 399.61 105.85 402.01 C 104.77 402.01 102.62 402.01 101.54 402.00 C 101.01 402.00 99.93 402.00 99.39 402.00 C 97.40 401.98 95.40 401.94 93.41 401.94 C 93.80 399.76 93.96 397.50 94.82 395.44 Z" fill="#000000" opacity="1.00"/><path d=" M 135.11 394.06 C 137.50 391.97 141.47 391.96 143.64 394.38 C 145.88 396.25 145.33 399.39 145.53 401.97 C 144.52 401.99 142.50 402.03 141.48 402.04 C 140.87 402.05 139.63 402.05 139.01 402.05 C 137.06 402.02 135.12 401.98 133.17 401.97 C 133.47 399.31 132.63 395.90 135.11 394.06 Z" fill="#000000" opacity="1.00"/><path d=" M 174.92 394.94 C 176.79 392.84 180.03 392.98 182.49 393.75 C 185.52 395.33 185.56 399.00 185.72 401.98 C 184.14 401.98 182.56 401.98 180.99 402.00 C 180.47 402.00 179.42 402.00 178.89 402.00 C 176.98 401.99 175.06 401.97 173.15 401.98 C 173.54 399.62 172.94 396.70 174.92 394.94 Z" fill="#000000" opacity="1.00"/><path d=" M 193.60 395.67 C 195.21 392.76 199.33 392.74 201.98 394.00 C 204.95 395.56 204.62 399.15 204.88 401.98 C 203.64 401.98 202.40 401.98 201.16 401.99 C 200.62 402.00 199.54 402.00 199.01 402.00 C 196.77 402.00 194.53 401.97 192.29 401.97 C 192.60 399.86 192.36 397.51 193.60 395.67 Z" fill="#000000" opacity="1.00"/><path d=" M 235.09 394.15 C 237.44 392.07 241.39 391.88 243.59 394.30 C 245.94 396.15 245.42 399.33 245.60 401.97 C 244.06 401.98 242.52 402.01 240.99 402.05 C 240.37 402.05 239.13 402.05 238.51 402.05 C 236.74 402.01 234.98 401.98 233.22 401.97 C 233.63 399.39 232.58 395.90 235.09 394.15 Z" fill="#000000" opacity="1.00"/><path d=" M 274.20 394.15 C 276.49 391.97 280.47 391.94 282.68 394.26 C 285.01 396.12 284.40 399.35 284.69 401.97 C 284.02 401.98 282.66 402.00 281.98 402.01 L 280.65 402.04 C 280.60 408.34 280.58 414.65 280.60 420.96 L 280.39 420.96 C 280.40 414.64 280.38 408.33 280.47 402.03 L 279.19 402.02 C 276.87 402.00 274.55 401.97 272.24 401.97 C 272.52 399.33 271.79 396.01 274.20 394.15 Z" fill="#000000" opacity="1.00"/><path d=" M 312.89 396.59 C 314.70 392.05 322.27 392.06 324.16 396.53 C 324.61 398.30 324.64 400.16 324.83 401.98 C 322.60 401.98 320.38 402.00 318.16 402.00 C 317.62 402.00 316.55 401.99 316.01 401.99 C 314.73 401.98 313.46 401.97 312.19 401.97 C 312.38 400.17 312.43 398.34 312.89 396.59 Z" fill="#000000" opacity="1.00"/><path d=" M 334.63 393.79 C 337.03 393.00 340.26 392.79 342.11 394.85 C 344.06 396.66 344.02 399.54 344.67 401.94 C 342.63 401.95 340.59 401.99 338.55 402.00 C 338.01 402.00 336.94 402.00 336.40 402.00 C 334.70 401.98 333.00 401.97 331.30 401.97 C 331.63 399.04 331.73 395.43 334.63 393.79 Z" fill="#000000" opacity="1.00"/><path d=" M 372.72 396.42 C 374.07 392.76 379.31 391.17 382.29 393.90 C 385.02 395.66 384.50 399.18 384.73 401.96 C 382.64 401.97 380.56 402.01 378.48 402.05 C 377.86 402.05 376.62 402.05 376.01 402.04 C 374.75 402.01 373.51 401.99 372.26 401.98 C 372.37 400.12 372.35 398.24 372.72 396.42 Z" fill="#000000" opacity="1.00"/><path d=" M 413.26 394.27 C 415.47 391.94 419.50 391.94 421.78 394.18 C 424.17 396.04 423.46 399.34 423.74 401.97 C 421.82 401.97 419.91 401.99 417.99 402.00 C 417.47 402.00 416.42 402.00 415.89 402.00 C 414.36 401.99 412.83 401.97 411.31 401.97 C 411.58 399.37 410.95 396.14 413.26 394.27 Z" fill="#000000" opacity="1.00"/><path d=" M 454.49 393.78 C 456.96 392.99 460.23 392.81 462.12 394.93 C 464.11 396.69 463.49 399.62 463.90 401.98 C 461.78 401.98 459.66 401.99 457.55 402.00 C 457.01 402.00 455.94 401.99 455.40 401.99 C 454.37 401.99 452.31 401.98 451.28 401.97 C 451.51 399.03 451.62 395.47 454.49 393.78 Z" fill="#000000" opacity="1.00"/><path d=" M 472.62 394.77 C 474.39 392.88 477.32 393.07 479.63 393.62 C 482.86 395.02 483.25 398.89 483.67 401.95 C 481.44 401.95 479.21 402.01 476.99 402.05 C 476.38 402.05 475.15 402.05 474.54 402.04 C 473.48 402.02 471.38 401.98 470.32 401.96 C 470.76 399.51 470.64 396.60 472.62 394.77 Z" fill="#000000" opacity="1.00"/><path d=" M 509.72 396.42 C 511.14 392.52 516.85 391.12 519.72 394.29 C 522.09 396.11 521.44 399.36 521.73 401.96 C 520.47 401.97 519.22 401.99 517.98 402.02 L 516.62 402.05 C 516.57 408.35 516.59 414.65 516.62 420.96 L 516.41 420.96 C 516.40 414.65 516.35 408.34 516.44 402.03 L 515.19 402.02 C 513.21 401.99 511.24 401.96 509.27 401.96 C 509.37 400.11 509.35 398.24 509.72 396.42 Z" fill="#000000" opacity="1.00"/><path d=" M 550.26 394.27 C 552.64 391.74 557.08 392.02 559.27 394.66 C 561.12 396.61 560.44 399.54 560.75 401.97 C 558.88 401.97 557.02 401.99 555.16 402.00 C 554.62 402.00 553.55 402.00 553.01 402.00 C 551.43 401.99 549.87 401.97 548.31 401.97 C 548.59 399.36 547.94 396.14 550.26 394.27 Z" fill="#000000" opacity="1.00"/><path d=" M 591.56 393.74 C 594.01 393.00 597.24 392.83 599.12 394.92 C 601.12 396.68 600.49 399.62 600.88 401.98 C 598.91 401.98 596.95 402.02 594.99 402.05 C 594.38 402.05 593.14 402.05 592.53 402.04 C 591.47 402.03 589.34 401.99 588.28 401.97 C 588.52 399.02 588.63 395.39 591.56 393.74 Z" fill="#000000" opacity="1.00"/><path d=" M 609.64 394.74 C 611.39 392.87 614.31 393.08 616.60 393.61 C 619.85 395.00 620.24 398.89 620.68 401.95 C 618.94 401.97 617.21 402.00 615.48 402.05 C 614.86 402.05 613.63 402.05 613.01 402.05 C 611.11 402.01 609.21 401.96 607.33 401.96 C 607.75 399.49 607.65 396.58 609.64 394.74 Z" fill="#000000" opacity="1.00"/><path d=" M 649.53 394.45 C 652.44 392.23 657.66 392.93 659.18 396.54 C 659.62 398.31 659.65 400.16 659.84 401.98 C 658.21 401.97 656.60 401.99 654.99 402.00 C 654.47 402.00 653.42 402.00 652.89 402.00 C 650.99 401.99 649.09 401.97 647.20 401.97 C 647.55 399.39 647.13 396.18 649.53 394.45 Z" fill="#000000" opacity="1.00"/><path d=" M 61.45 402.00 C 62.09 402.00 63.38 402.00 64.02 402.00 C 69.01 402.00 74.01 402.00 79.00 402.00 C 79.00 404.41 79.00 406.82 79.00 409.24 C 73.13 409.27 67.27 409.27 61.40 409.26 C 61.46 406.84 61.46 404.42 61.45 402.00 Z" fill="#ffffff" opacity="1.00"/><path d=" M 79.00 402.00 C 79.54 402.00 80.62 402.00 81.16 402.00 C 81.17 404.40 81.17 406.81 81.18 409.21 C 81.18 413.14 81.17 417.07 81.15 421.00 C 80.61 421.00 79.54 421.00 79.00 421.00 C 79.00 417.07 79.00 413.16 79.00 409.24 C 79.00 406.82 79.00 404.41 79.00 402.00 Z" fill="#b8b69d" opacity="1.00"/><path d=" M 81.16 402.00 C 81.86 402.00 83.26 402.00 83.96 402.00 C 84.73 402.00 86.27 402.00 87.05 402.00 C 89.17 401.99 91.29 401.95 93.41 401.94 C 95.40 401.94 97.40 401.98 99.39 402.00 C 99.40 404.40 99.41 406.81 99.42 409.23 C 93.34 409.28 87.26 409.29 81.18 409.21 C 81.17 406.81 81.17 404.40 81.16 402.00 Z" fill="#ffffff" opacity="1.00"/><path d=" M 99.39 402.00 C 99.93 402.00 101.01 402.00 101.54 402.00 C 101.54 404.41 101.53 406.81 101.53 409.22 C 101.52 413.15 101.54 417.07 101.58 421.00 C 101.03 421.00 99.93 421.00 99.38 421.00 C 99.41 417.07 99.43 413.15 99.42 409.23 C 99.41 406.81 99.40 404.40 99.39 402.00 Z" fill="#b8b69d" opacity="1.00"/><path d=" M 101.54 402.00 C 102.62 402.01 104.77 402.01 105.85 402.01 C 108.37 402.00 110.89 401.99 113.42 402.00 C 115.12 402.01 116.82 402.02 118.52 402.05 C 118.45 404.42 118.37 406.80 118.30 409.18 C 112.71 409.31 107.12 409.30 101.53 409.22 C 101.53 406.81 101.54 404.41 101.54 402.00 Z" fill="#ffffff" opacity="1.00"/><path d=" M 118.52 402.05 C 119.14 402.05 120.37 402.05 120.99 402.05 C 121.01 404.43 121.04 406.82 121.07 409.21 C 127.03 409.31 132.99 409.31 138.95 409.19 C 138.97 406.81 138.99 404.43 139.01 402.05 C 139.63 402.05 140.87 402.05 141.48 402.04 C 141.55 404.41 141.62 406.78 141.69 409.16 C 147.45 409.32 153.21 409.32 158.97 409.20 C 159.04 406.80 159.12 404.41 159.20 402.02 L 160.43 402.03 C 160.29 408.33 160.30 414.64 160.39 420.95 C 140.79 421.02 121.19 420.93 101.58 421.00 C 101.54 417.07 101.52 413.15 101.53 409.22 C 107.12 409.30 112.71 409.31 118.30 409.18 C 118.37 406.80 118.45 404.42 118.52 402.05 Z" fill="#e5e3c6" opacity="1.00"/><path d=" M 120.99 402.05 C 122.24 402.02 123.49 402.00 124.74 401.99 C 127.55 401.98 130.36 401.98 133.17 401.97 C 135.12 401.98 137.06 402.02 139.01 402.05 C 138.99 404.43 138.97 406.81 138.95 409.19 C 132.99 409.31 127.03 409.31 121.07 409.21 C 121.04 406.82 121.01 404.43 120.99 402.05 Z" fill="#ffffff" opacity="1.00"/><path d=" M 141.48 402.04 C 142.50 402.03 144.52 401.99 145.53 401.97 C 150.09 401.99 154.64 402.00 159.20 402.02 C 159.12 404.41 159.04 406.80 158.97 409.20 C 153.21 409.32 147.45 409.32 141.69 409.16 C 141.62 406.78 141.55 404.41 141.48 402.04 Z" fill="#ffffff" opacity="1.00"/><path d=" M 160.73 402.06 L 161.98 402.04 C 162.01 404.43 162.03 406.81 162.06 409.20 C 167.67 409.30 173.27 409.29 178.88 409.21 C 178.88 413.14 178.89 417.07 178.90 421.00 C 172.84 421.01 166.77 421.00 160.71 420.95 C 160.60 414.66 160.62 408.36 160.73 402.06 Z" fill="#e5e3c6" opacity="1.00"/><path d=" M 161.98 402.04 C 165.70 401.99 169.43 401.99 173.15 401.98 C 175.06 401.97 176.98 401.99 178.89 402.00 C 178.89 404.40 178.88 406.80 178.88 409.21 C 173.27 409.29 167.67 409.30 162.06 409.20 C 162.03 406.81 162.01 404.43 161.98 402.04 Z" fill="#ffffff" opacity="1.00"/><path d=" M 178.89 402.00 C 179.42 402.00 180.47 402.00 180.99 402.00 C 180.99 404.41 181.00 406.82 181.00 409.24 C 181.00 413.15 181.00 417.08 181.00 421.00 C 180.47 421.00 179.42 421.00 178.90 421.00 C 178.89 417.07 178.88 413.14 178.88 409.21 C 178.88 406.80 178.89 404.40 178.89 402.00 Z" fill="#b8b69d" opacity="1.00"/><path d=" M 180.99 402.00 C 182.56 401.98 184.14 401.98 185.72 401.98 C 187.91 401.98 190.10 401.98 192.29 401.97 C 194.53 401.97 196.77 402.00 199.01 402.00 C 199.00 404.41 199.00 406.82 199.00 409.24 C 193.00 409.28 187.00 409.28 181.00 409.24 C 181.00 406.82 180.99 404.41 180.99 402.00 Z" fill="#ffffff" opacity="1.00"/><path d=" M 199.01 402.00 C 199.54 402.00 200.62 402.00 201.16 401.99 C 201.17 404.40 201.17 406.81 201.18 409.22 C 201.18 413.14 201.17 417.07 201.15 421.00 C 200.61 421.00 199.54 421.00 199.00 421.00 C 199.00 417.08 199.00 413.16 199.00 409.24 C 199.00 406.82 199.00 404.41 199.01 402.00 Z" fill="#b8b69d" opacity="1.00"/><path d=" M 201.16 401.99 C 202.40 401.98 203.64 401.98 204.88 401.98 C 209.72 402.01 214.56 402.00 219.40 402.00 C 219.40 404.41 219.41 406.82 219.42 409.23 C 213.34 409.28 207.26 409.28 201.18 409.22 C 201.17 406.81 201.17 404.40 201.16 401.99 Z" fill="#ffffff" opacity="1.00"/><path d=" M 219.40 402.00 C 219.93 402.00 221.01 402.00 221.55 402.00 C 221.54 404.41 221.53 406.81 221.53 409.23 C 221.52 413.15 221.54 417.07 221.58 421.00 C 221.03 421.00 219.93 421.00 219.38 421.00 C 219.41 417.07 219.43 413.15 219.42 409.23 C 219.41 406.82 219.40 404.41 219.40 402.00 Z" fill="#b8b69d" opacity="1.00"/><path d=" M 221.55 402.00 C 225.44 402.00 229.33 401.99 233.22 401.97 C 234.98 401.98 236.74 402.01 238.51 402.05 C 238.44 404.42 238.37 406.79 238.30 409.17 C 232.71 409.30 227.12 409.30 221.53 409.23 C 221.53 406.81 221.54 404.41 221.55 402.00 Z" fill="#ffffff" opacity="1.00"/><path d=" M 238.51 402.05 C 239.13 402.05 240.37 402.05 240.99 402.05 C 241.01 404.43 241.03 406.81 241.06 409.20 C 247.02 409.31 252.98 409.31 258.94 409.20 C 258.96 406.82 258.98 404.43 259.01 402.05 C 259.65 402.06 260.94 402.06 261.59 402.06 C 261.60 404.42 261.63 406.79 261.66 409.17 C 267.43 409.33 273.21 409.33 278.99 409.18 C 279.05 406.79 279.12 404.40 279.19 402.02 L 280.47 402.03 C 280.38 408.33 280.40 414.64 280.39 420.96 C 260.79 421.02 241.18 420.93 221.58 421.00 C 221.54 417.07 221.52 413.15 221.53 409.23 C 227.12 409.30 232.71 409.30 238.30 409.17 C 238.37 406.79 238.44 404.42 238.51 402.05 Z" fill="#e5e3c6" opacity="1.00"/><path d=" M 240.99 402.05 C 242.52 402.01 244.06 401.98 245.60 401.97 C 247.60 401.95 249.60 401.93 251.61 401.93 C 254.07 401.93 256.54 402.01 259.01 402.05 C 258.98 404.43 258.96 406.82 258.94 409.20 C 252.98 409.31 247.02 409.31 241.06 409.20 C 241.03 406.81 241.01 404.43 240.99 402.05 Z" fill="#ffffff" opacity="1.00"/><path d=" M 261.59 402.06 L 263.51 402.03 C 266.42 402.00 269.33 401.98 272.24 401.97 C 274.55 401.97 276.87 402.00 279.19 402.02 C 279.12 404.40 279.05 406.79 278.99 409.18 C 273.21 409.33 267.43 409.33 261.66 409.17 C 261.63 406.79 261.60 404.42 261.59 402.06 Z" fill="#ffffff" opacity="1.00"/><path d=" M 280.65 402.04 L 281.98 402.01 C 282.01 404.40 282.03 406.80 282.06 409.20 C 287.67 409.30 293.27 409.29 298.88 409.23 C 298.88 413.15 298.89 417.07 298.91 421.00 C 292.81 421.01 286.70 421.00 280.60 420.96 C 280.58 414.65 280.60 408.34 280.65 402.04 Z" fill="#e5e3c6" opacity="1.00"/><path d=" M 281.98 402.01 C 282.66 402.00 284.02 401.98 284.69 401.97 C 289.42 401.99 294.16 402.01 298.89 402.00 C 298.88 404.41 298.88 406.81 298.88 409.23 C 293.27 409.29 287.67 409.30 282.06 409.20 C 282.03 406.80 282.01 404.40 281.98 402.01 Z" fill="#ffffff" opacity="1.00"/><path d=" M 298.89 402.00 C 299.42 402.00 300.47 402.00 301.00 402.00 C 301.00 404.41 301.00 406.82 301.00 409.24 C 301.00 413.16 301.00 417.08 301.00 421.00 C 300.47 421.00 299.43 421.00 298.91 421.00 C 298.89 417.07 298.88 413.15 298.88 409.23 C 298.88 406.81 298.88 404.41 298.89 402.00 Z" fill="#b8b69d" opacity="1.00"/><path d=" M 301.00 402.00 C 304.73 402.00 308.46 402.00 312.19 401.97 C 313.46 401.97 314.73 401.98 316.01 401.99 C 316.00 404.40 316.00 406.82 316.00 409.24 C 311.00 409.27 306.00 409.27 301.00 409.24 C 301.00 406.82 301.00 404.41 301.00 402.00 Z" fill="#ffffff" opacity="1.00"/><path d=" M 316.01 401.99 C 316.55 401.99 317.62 402.00 318.16 402.00 C 318.17 404.40 318.17 406.81 318.18 409.22 C 318.18 413.14 318.17 417.07 318.15 421.00 C 317.62 421.00 316.55 421.00 316.01 421.00 C 316.00 417.08 316.00 413.15 316.00 409.24 C 316.00 406.82 316.00 404.40 316.01 401.99 Z" fill="#b8b69d" opacity="1.00"/><path d=" M 318.16 402.00 C 320.38 402.00 322.60 401.98 324.83 401.98 C 326.98 401.98 329.14 401.97 331.30 401.97 C 333.00 401.97 334.70 401.98 336.40 402.00 C 336.40 404.40 336.41 406.81 336.42 409.23 C 330.34 409.28 324.26 409.28 318.18 409.22 C 318.17 406.81 318.17 404.40 318.16 402.00 Z" fill="#ffffff" opacity="1.00"/><path d=" M 336.40 402.00 C 336.94 402.00 338.01 402.00 338.55 402.00 C 338.54 404.40 338.53 406.81 338.53 409.23 C 338.52 413.15 338.54 417.07 338.58 421.00 C 338.03 421.00 336.93 421.00 336.38 421.00 C 336.41 417.07 336.43 413.15 336.42 409.23 C 336.41 406.81 336.40 404.40 336.40 402.00 Z" fill="#b8b69d" opacity="1.00"/><path d=" M 338.55 402.00 C 340.59 401.99 342.63 401.95 344.67 401.94 C 348.29 401.97 351.90 402.02 355.52 402.07 C 355.44 404.44 355.36 406.81 355.29 409.19 C 349.70 409.30 344.11 409.29 338.53 409.23 C 338.53 406.81 338.54 404.40 338.55 402.00 Z" fill="#ffffff" opacity="1.00"/><path d=" M 355.52 402.07 C 356.14 402.07 357.37 402.07 357.99 402.07 C 358.01 404.45 358.04 406.82 358.06 409.21 C 364.02 409.31 369.98 409.31 375.94 409.20 C 375.96 406.81 375.98 404.43 376.01 402.04 C 376.62 402.05 377.86 402.05 378.48 402.05 C 378.55 404.43 378.64 406.81 378.72 409.19 C 384.47 409.32 390.22 409.32 395.98 409.20 C 396.05 406.80 396.13 404.40 396.21 402.01 L 397.46 402.03 C 397.36 408.33 397.40 414.64 397.37 420.96 C 377.77 421.02 358.18 420.93 338.58 421.00 C 338.54 417.07 338.52 413.15 338.53 409.23 C 344.11 409.29 349.70 409.30 355.29 409.19 C 355.36 406.81 355.44 404.44 355.52 402.07 Z" fill="#e5e3c6" opacity="1.00"/><path d=" M 357.99 402.07 C 362.75 401.99 367.50 401.98 372.26 401.98 C 373.51 401.99 374.75 402.01 376.01 402.04 C 375.98 404.43 375.96 406.81 375.94 409.20 C 369.98 409.31 364.02 409.31 358.06 409.21 C 358.04 406.82 358.01 404.45 357.99 402.07 Z" fill="#ffffff" opacity="1.00"/><path d=" M 378.48 402.05 C 380.56 402.01 382.64 401.97 384.73 401.96 C 386.95 401.97 389.18 401.97 391.41 401.97 C 393.00 401.97 394.60 401.99 396.21 402.01 C 396.13 404.40 396.05 406.80 395.98 409.20 C 390.22 409.32 384.47 409.32 378.72 409.19 C 378.64 406.81 378.55 404.43 378.48 402.05 Z" fill="#ffffff" opacity="1.00"/><path d=" M 397.64 402.05 L 398.97 402.02 C 399.00 404.41 399.03 406.80 399.07 409.19 C 404.67 409.31 410.28 409.30 415.88 409.21 C 415.88 413.13 415.89 417.07 415.90 421.00 C 409.79 421.01 403.68 421.00 397.58 420.96 C 397.58 414.65 397.58 408.35 397.64 402.05 Z" fill="#e5e3c6" opacity="1.00"/><path d=" M 398.97 402.02 C 400.46 401.98 401.95 401.95 403.44 401.95 C 406.06 401.96 408.68 401.98 411.31 401.97 C 412.83 401.97 414.36 401.99 415.89 402.00 C 415.88 404.40 415.88 406.80 415.88 409.21 C 410.28 409.30 404.67 409.31 399.07 409.19 C 399.03 406.80 399.00 404.41 398.97 402.02 Z" fill="#ffffff" opacity="1.00"/><path d=" M 415.89 402.00 C 416.42 402.00 417.47 402.00 417.99 402.00 C 417.99 404.41 417.99 406.82 418.00 409.24 C 418.00 413.16 418.00 417.08 418.00 421.00 C 417.47 421.00 416.42 421.00 415.90 421.00 C 415.89 417.07 415.88 413.13 415.88 409.21 C 415.88 406.80 415.88 404.40 415.89 402.00 Z" fill="#b8b69d" opacity="1.00"/><path d=" M 417.99 402.00 C 419.91 401.99 421.82 401.97 423.74 401.97 C 427.49 401.99 431.25 402.00 435.01 402.00 C 435.00 404.41 435.00 406.82 435.00 409.24 C 429.33 409.27 423.66 409.27 418.00 409.24 C 417.99 406.82 417.99 404.41 417.99 402.00 Z" fill="#ffffff" opacity="1.00"/><path d=" M 435.01 402.00 C 435.55 402.00 436.62 402.00 437.16 402.00 C 437.17 404.41 437.17 406.82 437.18 409.23 C 437.18 413.15 437.17 417.07 437.15 421.00 C 436.61 421.00 435.54 421.00 435.00 421.00 C 435.00 417.08 435.00 413.15 435.00 409.24 C 435.00 406.82 435.00 404.41 435.01 402.00 Z" fill="#b8b69d" opacity="1.00"/><path d=" M 437.16 402.00 C 441.87 402.00 446.57 402.00 451.28 401.97 C 452.31 401.98 454.37 401.99 455.40 401.99 C 455.40 404.40 455.41 406.81 455.42 409.23 C 449.33 409.28 443.25 409.28 437.18 409.23 C 437.17 406.82 437.17 404.41 437.16 402.00 Z" fill="#ffffff" opacity="1.00"/><path d=" M 455.40 401.99 C 455.94 401.99 457.01 402.00 457.55 402.00 C 457.54 404.40 457.53 406.81 457.53 409.23 C 457.52 413.15 457.54 417.07 457.59 421.00 C 457.04 421.00 455.94 421.00 455.39 421.00 C 455.41 417.07 455.42 413.15 455.42 409.23 C 455.41 406.81 455.40 404.40 455.40 401.99 Z" fill="#b8b69d" opacity="1.00"/><path d=" M 457.55 402.00 C 459.66 401.99 461.78 401.98 463.90 401.98 C 466.03 401.98 468.18 401.96 470.32 401.96 C 471.38 401.98 473.48 402.02 474.54 402.04 C 474.45 404.42 474.36 406.80 474.28 409.19 C 468.70 409.31 463.11 409.30 457.53 409.23 C 457.53 406.81 457.54 404.40 457.55 402.00 Z" fill="#ffffff" opacity="1.00"/><path d=" M 474.54 402.04 C 475.15 402.05 476.38 402.05 476.99 402.05 C 477.01 404.43 477.03 406.81 477.07 409.20 C 483.02 409.31 488.98 409.31 494.94 409.20 C 494.96 406.82 494.98 404.45 495.01 402.07 C 495.62 402.07 496.86 402.07 497.47 402.07 C 497.55 404.44 497.62 406.80 497.71 409.18 C 503.47 409.32 509.23 409.32 514.99 409.19 C 515.05 406.79 515.12 404.40 515.19 402.02 L 516.44 402.03 C 516.35 408.34 516.40 414.65 516.41 420.96 C 496.80 421.02 477.19 420.93 457.59 421.00 C 457.54 417.07 457.52 413.15 457.53 409.23 C 463.11 409.30 468.70 409.31 474.28 409.19 C 474.36 406.80 474.45 404.42 474.54 402.04 Z" fill="#e5e3c6" opacity="1.00"/><path d=" M 476.99 402.05 C 479.21 402.01 481.44 401.95 483.67 401.95 C 487.45 401.97 491.23 402.02 495.01 402.07 C 494.98 404.45 494.96 406.82 494.94 409.20 C 488.98 409.31 483.02 409.31 477.07 409.20 C 477.03 406.81 477.01 404.43 476.99 402.05 Z" fill="#ffffff" opacity="1.00"/><path d=" M 497.47 402.07 C 501.40 402.00 505.33 401.98 509.27 401.96 C 511.24 401.96 513.21 401.99 515.19 402.02 C 515.12 404.40 515.05 406.79 514.99 409.19 C 509.23 409.32 503.47 409.32 497.71 409.18 C 497.62 406.80 497.55 404.44 497.47 402.07 Z" fill="#ffffff" opacity="1.00"/><path d=" M 516.62 402.05 L 517.98 402.02 C 518.00 404.41 518.03 406.80 518.07 409.20 C 523.67 409.30 529.28 409.29 534.88 409.22 C 534.88 413.14 534.89 417.07 534.89 421.00 C 528.80 421.01 522.71 421.00 516.62 420.96 C 516.59 414.65 516.57 408.35 516.62 402.05 Z" fill="#e5e3c6" opacity="1.00"/><path d=" M 517.98 402.02 C 519.22 401.99 520.47 401.97 521.73 401.96 C 523.95 401.96 526.17 401.97 528.40 401.97 C 530.56 401.97 532.72 402.00 534.89 401.99 C 534.88 404.40 534.88 406.81 534.88 409.22 C 529.28 409.29 523.67 409.30 518.07 409.20 C 518.03 406.80 518.00 404.41 517.98 402.02 Z" fill="#ffffff" opacity="1.00"/><path d=" M 534.89 401.99 C 535.41 401.99 536.46 401.98 536.99 401.98 C 536.99 404.39 536.99 406.81 537.00 409.23 C 537.00 413.15 536.99 417.07 536.99 421.00 C 536.47 421.00 535.42 421.00 534.89 421.00 C 534.89 417.07 534.88 413.14 534.88 409.22 C 534.88 406.81 534.88 404.40 534.89 401.99 Z" fill="#b8b69d" opacity="1.00"/><path d=" M 536.99 401.98 C 537.85 401.97 539.58 401.96 540.44 401.95 C 543.06 401.97 545.68 401.98 548.31 401.97 C 549.87 401.97 551.43 401.99 553.01 402.00 C 553.00 404.41 552.99 406.83 553.00 409.25 C 547.66 409.27 542.33 409.27 537.00 409.23 C 536.99 406.81 536.99 404.39 536.99 401.98 Z" fill="#ffffff" opacity="1.00"/><path d=" M 553.01 402.00 C 553.55 402.00 554.62 402.00 555.16 402.00 C 555.16 404.40 555.17 406.81 555.18 409.22 C 555.17 413.14 555.17 417.07 555.16 421.00 C 554.62 421.00 553.55 421.00 553.01 421.00 C 553.00 417.08 553.00 413.16 553.00 409.25 C 552.99 406.83 553.00 404.41 553.01 402.00 Z" fill="#b8b69d" opacity="1.00"/><path d=" M 555.16 402.00 C 557.02 401.99 558.88 401.97 560.75 401.97 C 564.96 402.00 569.18 402.00 573.40 402.00 C 573.40 404.41 573.40 406.81 573.42 409.23 C 567.33 409.28 561.25 409.28 555.18 409.22 C 555.17 406.81 555.16 404.40 555.16 402.00 Z" fill="#ffffff" opacity="1.00"/><path d=" M 573.40 402.00 C 573.93 402.00 575.01 402.00 575.55 402.00 C 575.53 404.41 575.53 406.82 575.53 409.23 C 575.52 413.15 575.54 417.07 575.58 421.00 C 575.03 421.00 573.93 421.00 573.39 421.00 C 573.41 417.07 573.42 413.15 573.42 409.23 C 573.40 406.81 573.40 404.41 573.40 402.00 Z" fill="#b8b69d" opacity="1.00"/><path d=" M 575.55 402.00 C 579.79 402.01 584.03 401.99 588.28 401.97 C 589.34 401.99 591.47 402.03 592.53 402.04 C 592.44 404.42 592.35 406.80 592.27 409.19 C 586.69 409.30 581.11 409.29 575.53 409.23 C 575.53 406.82 575.53 404.41 575.55 402.00 Z" fill="#ffffff" opacity="1.00"/><path d=" M 592.53 402.04 C 593.14 402.05 594.38 402.05 594.99 402.05 C 595.01 404.43 595.03 406.82 595.06 409.20 C 601.02 409.31 606.97 409.31 612.93 409.21 C 612.95 406.82 612.98 404.43 613.01 402.05 C 613.63 402.05 614.86 402.05 615.48 402.05 C 615.55 404.42 615.63 406.81 615.72 409.19 C 621.46 409.32 627.22 409.31 632.97 409.20 C 633.04 406.80 633.12 404.41 633.20 402.02 L 634.40 402.03 C 634.30 408.33 634.32 414.64 634.35 420.95 C 614.76 421.02 595.17 420.93 575.58 421.00 C 575.54 417.07 575.52 413.15 575.53 409.23 C 581.11 409.29 586.69 409.30 592.27 409.19 C 592.35 406.80 592.44 404.42 592.53 402.04 Z" fill="#e5e3c6" opacity="1.00"/><path d=" M 594.99 402.05 C 596.95 402.02 598.91 401.98 600.88 401.98 C 603.02 401.98 605.17 401.96 607.33 401.96 C 609.21 401.96 611.11 402.01 613.01 402.05 C 612.98 404.43 612.95 406.82 612.93 409.21 C 606.97 409.31 601.02 409.31 595.06 409.20 C 595.03 406.82 595.01 404.43 594.99 402.05 Z" fill="#ffffff" opacity="1.00"/><path d=" M 615.48 402.05 C 617.21 402.00 618.94 401.97 620.68 401.95 C 624.85 401.99 629.02 402.00 633.20 402.02 C 633.12 404.41 633.04 406.80 632.97 409.20 C 627.22 409.31 621.46 409.32 615.72 409.19 C 615.63 406.81 615.55 404.42 615.48 402.05 Z" fill="#ffffff" opacity="1.00"/><path d=" M 634.70 402.07 L 635.98 402.05 C 636.00 404.43 636.03 406.81 636.06 409.20 C 641.67 409.30 647.27 409.29 652.88 409.22 C 652.88 413.15 652.89 417.08 652.90 421.01 C 646.82 420.99 640.75 421.01 634.67 420.95 C 634.62 414.66 634.63 408.36 634.70 402.07 Z" fill="#e5e3c6" opacity="1.00"/><path d=" M 635.98 402.05 C 636.47 402.04 637.46 402.03 637.95 402.02 C 638.73 402.01 640.27 402.00 641.05 402.00 C 643.10 401.99 645.14 401.97 647.20 401.97 C 649.09 401.97 650.99 401.99 652.89 402.00 C 652.88 404.40 652.88 406.81 652.88 409.22 C 647.27 409.29 641.67 409.30 636.06 409.20 C 636.03 406.81 636.00 404.43 635.98 402.05 Z" fill="#ffffff" opacity="1.00"/><path d=" M 652.89 402.00 C 653.42 402.00 654.47 402.00 654.99 402.00 C 654.99 404.41 654.99 406.82 655.00 409.24 C 655.00 413.17 654.99 417.09 655.00 421.02 C 654.47 421.02 653.43 421.01 652.90 421.01 C 652.89 417.08 652.88 413.15 652.88 409.22 C 652.88 406.81 652.88 404.40 652.89 402.00 Z" fill="#b8b69d" opacity="1.00"/><path d=" M 654.99 402.00 C 656.60 401.99 658.21 401.97 659.84 401.98 C 661.36 401.98 662.88 401.99 664.42 402.00 C 664.45 404.42 664.46 406.84 664.53 409.26 C 661.35 409.25 658.17 409.25 655.00 409.24 C 654.99 406.82 654.99 404.41 654.99 402.00 Z" fill="#ffffff" opacity="1.00"/><path d=" M 61.40 409.26 C 67.27 409.27 73.13 409.27 79.00 409.24 C 79.00 413.16 79.00 417.07 79.00 421.00 C 74.56 420.97 70.12 421.09 65.68 420.98 C 62.28 418.19 61.30 413.46 61.40 409.26 Z" fill="#e5e3c6" opacity="1.00"/><path d=" M 81.18 409.21 C 87.26 409.29 93.34 409.28 99.42 409.23 C 99.43 413.15 99.41 417.07 99.38 421.00 C 93.30 421.00 87.23 421.00 81.15 421.00 C 81.17 417.07 81.18 413.14 81.18 409.21 Z" fill="#e5e3c6" opacity="1.00"/><path d=" M 181.00 409.24 C 187.00 409.28 193.00 409.28 199.00 409.24 C 199.00 413.16 199.00 417.08 199.00 421.00 C 193.00 421.00 187.00 421.00 181.00 421.00 C 181.00 417.08 181.00 413.15 181.00 409.24 Z" fill="#e5e3c6" opacity="1.00"/><path d=" M 201.18 409.22 C 207.26 409.28 213.34 409.28 219.42 409.23 C 219.43 413.15 219.41 417.07 219.38 421.00 C 213.31 421.00 207.23 421.00 201.15 421.00 C 201.17 417.07 201.18 413.14 201.18 409.22 Z" fill="#e5e3c6" opacity="1.00"/><path d=" M 301.00 409.24 C 306.00 409.27 311.00 409.27 316.00 409.24 C 316.00 413.15 316.00 417.08 316.01 421.00 C 311.00 421.00 306.00 421.00 301.00 421.00 C 301.00 417.08 301.00 413.16 301.00 409.24 Z" fill="#e5e3c6" opacity="1.00"/><path d=" M 318.18 409.22 C 324.26 409.28 330.34 409.28 336.42 409.23 C 336.43 413.15 336.41 417.07 336.38 421.00 C 330.30 421.00 324.23 421.00 318.15 421.00 C 318.17 417.07 318.18 413.14 318.18 409.22 Z" fill="#e5e3c6" opacity="1.00"/><path d=" M 418.00 409.24 C 423.66 409.27 429.33 409.27 435.00 409.24 C 435.00 413.15 435.00 417.08 435.00 421.00 C 429.33 421.00 423.67 421.00 418.00 421.00 C 418.00 417.08 418.00 413.16 418.00 409.24 Z" fill="#e5e3c6" opacity="1.00"/><path d=" M 437.18 409.23 C 443.25 409.28 449.33 409.28 455.42 409.23 C 455.42 413.15 455.41 417.07 455.39 421.00 C 449.31 421.00 443.23 421.00 437.15 421.00 C 437.17 417.07 437.18 413.15 437.18 409.23 Z" fill="#e5e3c6" opacity="1.00"/><path d=" M 537.00 409.23 C 542.33 409.27 547.66 409.27 553.00 409.25 C 553.00 413.16 553.00 417.08 553.01 421.00 C 547.67 421.00 542.33 421.00 536.99 421.00 C 536.99 417.07 537.00 413.15 537.00 409.23 Z" fill="#e5e3c6" opacity="1.00"/><path d=" M 555.18 409.22 C 561.25 409.28 567.33 409.28 573.42 409.23 C 573.42 413.15 573.41 417.07 573.39 421.00 C 567.31 421.00 561.23 421.00 555.16 421.00 C 555.17 417.07 555.17 413.14 555.18 409.22 Z" fill="#e5e3c6" opacity="1.00"/><path d=" M 655.00 409.24 C 658.17 409.25 661.35 409.25 664.53 409.26 C 664.63 413.45 663.64 418.20 660.24 420.99 C 658.48 421.04 656.74 421.03 655.00 421.02 C 654.99 417.09 655.00 413.17 655.00 409.24 Z" fill="#e5e3c6" opacity="1.00"/><path d=" M 65.68 420.98 C 70.12 421.09 74.56 420.97 79.00 421.00 C 79.54 421.00 80.61 421.00 81.15 421.00 C 87.23 421.00 93.30 421.00 99.38 421.00 C 99.93 421.00 101.03 421.00 101.58 421.00 C 121.19 420.93 140.79 421.02 160.39 420.95 L 160.71 420.95 C 166.77 421.00 172.84 421.01 178.90 421.00 C 179.42 421.00 180.47 421.00 181.00 421.00 C 187.00 421.00 193.00 421.00 199.00 421.00 C 199.54 421.00 200.61 421.00 201.15 421.00 C 207.23 421.00 213.31 421.00 219.38 421.00 C 219.93 421.00 221.03 421.00 221.58 421.00 C 241.18 420.93 260.79 421.02 280.39 420.96 L 280.60 420.96 C 286.70 421.00 292.81 421.01 298.91 421.00 C 299.43 421.00 300.47 421.00 301.00 421.00 C 306.00 421.00 311.00 421.00 316.01 421.00 C 316.55 421.00 317.62 421.00 318.15 421.00 C 324.23 421.00 330.30 421.00 336.38 421.00 C 336.93 421.00 338.03 421.00 338.58 421.00 C 358.18 420.93 377.77 421.02 397.37 420.96 L 397.58 420.96 C 403.68 421.00 409.79 421.01 415.90 421.00 C 416.42 421.00 417.47 421.00 418.00 421.00 C 423.67 421.00 429.33 421.00 435.00 421.00 C 435.54 421.00 436.61 421.00 437.15 421.00 C 443.23 421.00 449.31 421.00 455.39 421.00 C 455.94 421.00 457.04 421.00 457.59 421.00 C 477.19 420.93 496.80 421.02 516.41 420.96 L 516.62 420.96 C 522.71 421.00 528.80 421.01 534.89 421.00 C 535.42 421.00 536.47 421.00 536.99 421.00 C 542.33 421.00 547.67 421.00 553.01 421.00 C 553.55 421.00 554.62 421.00 555.16 421.00 C 561.23 421.00 567.31 421.00 573.39 421.00 C 573.93 421.00 575.03 421.00 575.58 421.00 C 595.17 420.93 614.76 421.02 634.35 420.95 L 634.67 420.95 C 640.75 421.01 646.82 420.99 652.90 421.01 C 653.43 421.01 654.47 421.02 655.00 421.02 C 656.74 421.03 658.48 421.04 660.24 420.99 C 657.97 423.82 654.90 426.39 651.07 426.33 C 459.36 426.39 267.66 426.31 75.95 426.37 C 71.77 426.69 68.11 424.19 65.68 420.98 Z" fill="#fa2b2b" opacity="1.00"/><path d=" M 26.59 475.60 C 31.66 474.60 36.84 475.05 41.97 475.00 C 256.32 475.00 470.66 475.00 685.00 475.00 C 690.13 475.05 695.31 474.61 700.39 475.59 C 701.45 476.23 702.45 476.92 703.52 477.62 C 701.52 482.27 697.05 485.01 693.34 488.16 C 687.22 491.79 680.18 494.32 672.98 494.02 C 663.03 493.98 653.08 494.00 643.14 494.00 C 642.44 494.00 641.05 494.01 640.36 494.01 C 600.12 493.99 559.89 493.99 519.65 494.01 C 518.95 494.01 517.56 494.01 516.87 494.00 C 414.62 494.00 312.37 493.99 210.12 494.01 C 209.43 494.01 208.04 494.01 207.35 494.01 C 167.12 493.99 126.89 493.99 86.66 494.01 C 85.96 494.01 84.58 494.01 83.89 494.01 C 74.26 494.00 64.63 493.98 55.00 494.02 C 45.71 494.41 36.19 491.02 29.39 484.67 C 26.97 482.75 24.69 480.53 23.48 477.63 C 24.51 476.93 25.53 476.24 26.59 475.60 M 26.94 478.05 C 34.12 485.24 43.69 490.72 54.04 490.99 C 260.06 491.02 466.08 490.97 672.09 491.02 C 682.77 490.99 692.71 485.44 700.10 478.02 C 475.71 478.00 251.33 477.95 26.94 478.05 Z" fill="#010101" opacity="1.00"/><path d=" M 26.94 478.05 C 251.33 477.95 475.71 478.00 700.10 478.02 C 692.71 485.44 682.77 490.99 672.09 491.02 C 466.08 490.97 260.06 491.02 54.04 490.99 C 43.69 490.72 34.12 485.24 26.94 478.05 Z" fill="#212322" opacity="1.00"/><path d=" M 83.89 494.01 C 84.58 494.01 85.96 494.01 86.66 494.01 C 87.65 498.76 89.02 503.81 92.86 507.10 C 96.60 510.69 101.87 512.15 106.96 512.03 C 133.98 511.95 160.99 512.04 188.01 512.00 C 193.74 512.10 199.51 509.60 203.05 505.02 C 205.63 501.91 206.44 497.84 207.35 494.01 C 208.04 494.01 209.43 494.01 210.12 494.01 C 209.83 503.98 202.14 513.29 192.13 514.68 C 185.09 515.38 177.99 514.82 170.93 515.00 C 171.09 563.33 170.95 611.67 171.00 660.00 C 171.48 670.36 163.40 680.25 153.11 681.69 C 147.17 682.32 140.76 682.45 135.36 679.51 C 128.29 675.84 123.73 667.98 124.00 660.02 C 124.05 611.68 123.90 563.34 124.08 515.00 C 116.67 514.82 109.24 515.38 101.86 514.68 C 91.85 513.28 84.17 503.99 83.89 494.01 M 127.12 515.04 C 126.81 562.05 127.13 609.06 126.97 656.08 C 126.99 660.20 126.77 664.56 128.71 668.35 C 131.39 674.26 137.41 678.47 143.88 678.91 C 149.32 679.34 155.23 679.15 159.85 675.87 C 165.47 672.31 168.34 665.54 168.02 659.02 C 167.91 611.04 168.11 563.05 167.93 515.07 C 154.33 514.93 140.72 514.99 127.12 515.04 Z" fill="#212322" opacity="1.00"/><path d=" M 86.66 494.01 C 126.89 493.99 167.12 493.99 207.35 494.01 C 206.44 497.84 205.63 501.91 203.05 505.02 C 199.51 509.60 193.74 512.10 188.01 512.00 C 160.99 512.04 133.98 511.95 106.96 512.03 C 101.87 512.15 96.60 510.69 92.86 507.10 C 89.02 503.81 87.65 498.76 86.66 494.01 Z" fill="#383a39" opacity="1.00"/><path d=" M 516.87 494.00 C 517.56 494.01 518.95 494.01 519.65 494.01 C 520.64 499.02 522.22 504.31 526.43 507.58 C 530.14 510.88 535.18 512.13 540.05 512.02 C 567.04 511.97 594.04 512.02 621.03 512.00 C 626.54 512.10 632.08 509.82 635.61 505.53 C 638.46 502.34 639.42 498.06 640.36 494.01 C 641.05 494.01 642.44 494.00 643.14 494.00 C 643.21 504.45 634.49 514.18 624.03 514.95 C 617.00 515.11 609.96 514.94 602.93 515.00 C 603.10 563.33 602.95 611.67 603.00 660.00 C 603.26 667.76 598.97 675.41 592.20 679.20 C 586.70 682.44 580.02 682.36 573.88 681.69 C 563.63 680.24 555.56 670.42 556.00 660.09 C 556.04 611.73 555.90 563.36 556.08 515.00 C 549.38 514.94 542.68 515.11 535.98 514.95 C 525.52 514.19 516.79 504.46 516.87 494.00 M 559.09 515.07 C 558.86 561.35 559.09 607.63 558.98 653.92 C 558.97 657.27 558.84 660.65 559.34 663.98 C 560.64 671.60 567.26 677.97 574.97 678.82 C 580.44 679.36 586.40 679.34 591.22 676.31 C 596.84 672.98 600.19 666.46 600.00 659.97 C 599.94 611.68 600.10 563.39 599.93 515.10 C 586.32 514.92 572.70 514.95 559.09 515.07 Z" fill="#212322" opacity="1.00"/><path d=" M 519.65 494.01 C 559.89 493.99 600.12 493.99 640.36 494.01 C 639.42 498.06 638.46 502.34 635.61 505.53 C 632.08 509.82 626.54 512.10 621.03 512.00 C 594.04 512.02 567.04 511.97 540.05 512.02 C 535.18 512.13 530.14 510.88 526.43 507.58 C 522.22 504.31 520.64 499.02 519.65 494.01 Z" fill="#383a39" opacity="1.00"/><path d=" M 127.12 515.04 C 140.72 514.99 154.33 514.93 167.93 515.07 C 168.11 563.05 167.91 611.04 168.02 659.02 C 168.34 665.54 165.47 672.31 159.85 675.87 C 155.23 679.15 149.32 679.34 143.88 678.91 C 137.41 678.47 131.39 674.26 128.71 668.35 C 126.77 664.56 126.99 660.20 126.97 656.08 C 127.13 609.06 126.81 562.05 127.12 515.04 Z" fill="#383a39" opacity="1.00"/><path d=" M 559.09 515.07 C 572.70 514.95 586.32 514.92 599.93 515.10 C 600.10 563.39 599.94 611.68 600.00 659.97 C 600.19 666.46 596.84 672.98 591.22 676.31 C 586.40 679.34 580.44 679.36 574.97 678.82 C 567.26 677.97 560.64 671.60 559.34 663.98 C 558.84 660.65 558.97 657.27 558.98 653.92 C 559.09 607.63 558.86 561.35 559.09 515.07 Z" fill="#383a39" opacity="1.00"/></svg>